<svg id="inscription-svg" data-name="inscription-svg" xmlns="http://www.w3.org/2000/svg" xmlns:xlink="http://www.w3.org/1999/xlink" viewBox="0 0 1045.79 923.13"><defs><style>.cls-1,.cls-16,.cls-17{fill:none;}.cls-2{fill:#3f3d56;}.cls-3{fill:#a0616a;}.cls-4{fill:#d0cde1;}.cls-5{opacity:0.1;}.cls-15,.cls-5,.cls-7{isolation:isolate;}.cls-6{fill:#2f2e41;}.cls-8{clipPath:url(#clipPath);}.cls-9{clipPath:url(#clipPath-2);}.cls-10{fill:#6c63ff;}.cls-11{fill:#e5a5a5;}.cls-12{fill:#ffb8b8;}.cls-13{fill:#fff;}.cls-14{fill:#f9f9f9;}.cls-15{opacity:0.2;}.cls-16{stroke:#fff;stroke-width:5px;}.cls-16,.cls-17{stroke-miterlimit:10;}.cls-17{stroke:#0f0000;stroke-width:3px;}</style><clipPath id="clipPath" transform="translate(-412.6 -49.83)"><polygon id="SVGID" classname="cls-1" points="1194.98 910.66 1161.58 708.78 1320.32 681.28 1335.21 860.83 1194.98 910.66"/></clipPath><clipPath id="clipPath-2" transform="translate(-412.6 -49.83)"><polyline id="SVGID-2" data-name="SVGID" classname="cls-1" points="1236.79 895.8 1168.02 747.68 1302.82 684.31 1331 810.1 1236.79 895.8"/></clipPath></defs><title>lol</title><rect classname="cls-2" width="1045.79" height="587.87"/><path classname="cls-3" d="M1374.15,696.13s-9,44,6,40,9-42,9-42Z" transform="translate(-412.6 -49.83)"/><path classname="cls-4" d="M1416.15,514.13h-10s-11,8-10,17-18,87-18,97-4,13-4,19,2,10,0,13-6,21-5,28a56.54,56.54,0,0,1,0,14h25s18-61,22-64,6-8,6-11-2-3,3-7,2-22,2-22l7-18Z" transform="translate(-412.6 -49.83)"/><path classname="cls-5" d="M1416.15,514.13h-10s-11,8-10,17-18,87-18,97-4,13-4,19,2,10,0,13-6,21-5,28a56.54,56.54,0,0,1,0,14h25s18-61,22-64,6-8,6-11-2-3,3-7,2-22,2-22l7-18Z" transform="translate(-412.6 -49.83)"/><polygon classname="cls-3" points="866.56 826.8 860.56 851.8 882.56 865.8 888.56 835.8 866.56 826.8"/><polygon classname="cls-3" points="970.56 857.8 959.56 872.8 972.56 887.8 990.56 887.8 990.56 857.8 970.56 857.8"/><path classname="cls-6" d="M1406.15,924.63h-6a22.73,22.73,0,0,0-9,0c-6,1-14.14-8.62-14.14-8.62l-7.86,6.62s-16,4-8,23l18,11s9,19,27,16,5-23,5-23Z" transform="translate(-412.6 -49.83)"/><path classname="cls-6" d="M1279.15,889.63l-1.52-6.66-13.48,3.66s-28-18-28,6,22,32,22,32,8-1,8,6,21,18,29,14,8-14,8-14l-2-28-9,2s-17-1-14-5S1279.15,889.63,1279.15,889.63Z" transform="translate(-412.6 -49.83)"/><path classname="cls-6" d="M1309.6,659.63s-12,16-12,25-4,89-4,89-22,102-16,108,24,15,27,12,24-112,24-112l25-67,23,96s-1,83,3,84,6,2,4,6-5,12-5,12,25,6,30,2,6-101,0-135,1-112,1-112Z" transform="translate(-412.6 -49.83)"/><circle classname="cls-3" cx="932.06" cy="386.3" r="30"/><path classname="cls-3" d="M1335.65,455.13s4,21,0,27,54,2,54,2-28-32-25-38S1335.65,455.13,1335.65,455.13Z" transform="translate(-412.6 -49.83)"/><path classname="cls-4" d="M1310.15,489.63s20-26,45-21c6.75,1.35,12.92,2.7,18.32,3.95,19,4.41,34.89,18,41.4,36.43,1.69,4.78,2.53,9.37,1.78,13.12-3,15-1.5,133.5-1.5,133.5s-8,3-7,7,8,9,1,9-113-4-111-7S1310.15,489.63,1310.15,489.63Z" transform="translate(-412.6 -49.83)"/><path classname="cls-4" d="M1320.15,489.63h-10s-11,8-10,17-18,87-18,97-4,13-4,19,2,10,0,13-6,21-5,28a56.54,56.54,0,0,1,0,14h25s18-61,22-64,6-8,6-11-2-3,3-7,2-22,2-22l7-18Z" transform="translate(-412.6 -49.83)"/><path classname="cls-6" d="M1334.19,390.76v-2.47a19,19,0,0,1,6.21.22,10.13,10.13,0,0,0-.91-4.34,19.67,19.67,0,0,1,5.94,1.77l.69-4.6,17.91,6.28c6.43,2.25,13.22,4.76,17.39,10.14,4.66,6,5,14.41,3.21,21.79s-5.42,14.17-8.13,21.26a50,50,0,0,1-3.81,8.75c-5.41,8.72-17.63,11.84-27.21,8.13-3.53-1.37-6.87-3.65-8.66-7a51.24,51.24,0,0,1-2.34-6.38c-1.66-4.4-4.09-13.63-8.13-16.05-1.78-1.07-4.49,3.51-6,2.12-3.94-3.59-4-9.85-2.4-14.94a110,110,0,0,1,5.5-14.94C1324.37,398.55,1334.19,390.47,1334.19,390.76Z" transform="translate(-412.6 -49.83)"/><g id="Avatar"><g classname="cls-7"><g classname="cls-8"><g classname="cls-9"><path classname="cls-10" d="M1259.45,863l.91-.16.92-.17.9-.19c.31-.07.61-.13.91-.21l.9-.22.9-.24.9-.26.89-.28-.89.28-.9.26-.9.24-.9.22c-.3.08-.6.14-.91.21l-.9.19-.92.17-.91.16m21-8.22-.16.11-.17.1-.16.1-.17.11-.18.11-.19.11-.19.12-.18.11-.33.19-.33.2-.33.19-.32.19-.33.18-.34.19-.33.18-.33.18-.33.18-.34.18-.33.17-.34.17-.33.17-.34.16-.34.17-.34.16-.86.4-.86.39-.87.37-.88.35-.68.26-.68.25-.68.25-.69.23h0l.69-.23.68-.25.68-.25.68-.26.88-.35.87-.37.86-.39.86-.4.34-.16.34-.17.34-.16.33-.17.34-.17.33-.17.34-.18.33-.18.33-.18.33-.18.34-.19.33-.18.32-.19.33-.19.33-.2.33-.19.18-.11.19-.12.19-.11.18-.11.17-.11.16-.1.17-.1.16-.11m.82-.53-.18.12-.19.12-.18.12-.19.12h0l0,0h0l0,0h0l.18-.12.19-.12.18-.12.18-.12m2.12-1.46-.34.24-.35.25-.34.23-.35.24-.18.12-.19.13-.18.12-.19.13.19-.13.18-.12.19-.13.18-.12.35-.24.34-.23.35-.25.34-.24m1.73-1.27-.33.24-.32.24-.32.24-.32.24-.11.07-.11.08-.11.08-.11.08.18-.12.17-.13.17-.12.17-.13a2.48,2.48,0,0,0,.26-.19l.26-.19.26-.19.26-.2m.24-.18h0m4.26-3.56,0,0,0,0,0,0,0,0-.06.06-.06.05-.06,0-.06.06-.06,0-.06,0-.06.06-.06,0-.42.37-.43.37-.42.36-.43.36-.09.06-.08.07-.08.07-.08.07.26-.22.27-.22.27-.23.26-.22.39-.33.39-.34.38-.33.38-.35m24.3-36.78-.24.64-.24.64c-.09.22-.17.43-.25.64s-.17.43-.25.64l-.26.63-.26.63-.27.63c-.08.21-.17.42-.26.63l-.27.62-.28.63c-.09.2-.19.41-.28.62s-.19.41-.28.62-.19.41-.29.61-.2.41-.29.62l-.3.61-.3.61-.18.36-.19.37c-.06.12-.12.25-.19.37s-.12.24-.19.36l-.18.37c-.07.12-.13.24-.19.36s-.13.24-.19.36l-.2.36-.19.36-.2.36-.2.36c-.06.12-.13.24-.2.36s-.13.24-.2.36-.13.23-.2.35-.13.24-.2.35l-.21.36-.69,1.17c-.23.38-.46.77-.7,1.15l-.72,1.14c-.24.38-.48.76-.73,1.13s-.49.75-.75,1.12-.5.74-.76,1.1l-.78,1.09-.79,1.07-.8,1.06-.82,1.05-.84,1c-.28.34-.56.68-.85,1s-.57.67-.86,1-.58.66-.88,1l-.89,1-.9.95-.22.23-.23.23-.23.23c-.07.08-.15.15-.23.23a2.5,2.5,0,0,1-.23.23,2.5,2.5,0,0,1-.23.23l-.23.23-.23.22-.23.23-.23.22-.24.23-.23.22-.24.23-.24.22-.24.22-.24.22h0l.24-.22.24-.22.24-.22.24-.23.23-.22.24-.23.23-.22.23-.23.23-.22.23-.23a2.5,2.5,0,0,0,.23-.23,2.5,2.5,0,0,0,.23-.23c.08-.08.16-.15.23-.23l.23-.23.23-.23.22-.23.9-.95.89-1c.3-.33.59-.65.88-1s.58-.66.86-1,.57-.67.85-1l.84-1,.82-1.05.8-1.06.79-1.07.78-1.09c.26-.36.51-.73.76-1.1s.51-.74.75-1.12.49-.75.73-1.13l.72-1.14c.24-.38.47-.77.7-1.15l.69-1.17.21-.36c.07-.11.13-.23.2-.35s.14-.23.2-.35.14-.24.2-.36.14-.24.2-.36l.2-.36.2-.36.19-.36.2-.36c.06-.12.12-.24.19-.36s.12-.24.19-.36l.18-.37c.07-.12.13-.24.19-.36s.13-.25.19-.37l.19-.37.18-.36.3-.61.3-.61c.09-.21.19-.41.29-.62s.19-.41.29-.61.19-.42.28-.62.19-.42.28-.62l.28-.63.27-.62c.09-.21.18-.42.26-.63l.27-.63.26-.63.26-.63c.08-.21.17-.42.25-.64s.16-.42.25-.64l.24-.64.24-.64m-32.32-43h0v0l0,0h0v0m-22.14-61.4c-1.06.2-2.11.43-3.17.7s-2.11.57-3.17.91-2.11.72-3.16,1.13-2.1.86-3.14,1.34l-.79.36q-1.42.69-2.85,1.47c-.94.51-1.89,1.06-2.82,1.63s-1.87,1.19-2.79,1.82-1.84,1.3-2.75,2-1.9,1.48-2.83,2.27-1.86,1.61-2.77,2.46-1.81,1.73-2.7,2.65-1.76,1.85-2.62,2.83-1.73,2-2.57,3-1.66,2.12-2.46,3.22-1.6,2.24-2.37,3.4-1.52,2.35-2.25,3.56-1.46,2.49-2.15,3.77-1.37,2.58-2,3.91-1.28,2.69-1.88,4.08-1.17,2.79-1.72,4.22q-1.79,4.63-3.1,9.33c-.89,3.13-1.62,6.27-2.21,9.41s-1,6.27-1.32,9.39-.45,6.2-.46,9.25.11,6,.36,9,.64,5.8,1.16,8.6,1.14,5.52,1.89,8.17,1.63,5.19,2.61,7.65l0,.1,0,.09,0,.09,0,.09,3.09,6.66c.87,1.65,1.79,3.23,2.77,4.76s2,3,3.08,4.37,2.19,2.72,3.36,4a50.58,50.58,0,0,0,3.63,3.55,47.87,47.87,0,0,0,5.1,4A45.44,45.44,0,0,0,1232,859a43.61,43.61,0,0,0,5.8,2.38,42.91,42.91,0,0,0,6.1,1.55l.38.08.39.06.39.07.39.06.38.06.39,0,.39,0,.39,0,.39,0,.39,0,.39,0,.4,0,.38,0,.39,0,.39,0h0l-.39,0-.39,0-.38,0-.4,0-.39,0-.39,0-.39,0-.39,0-.39,0-.39,0-.38-.06-.39-.06-.39-.07-.39-.06-.38-.08c-.05-.24-.09-.49-.12-.73l-.12-.72c0-.23-.08-.47-.11-.7s-.08-.46-.11-.68-.08-.45-.11-.67-.07-.44-.11-.65-.07-.43-.1-.63-.07-.41-.1-.61-.07-.39-.1-.58l-.09-.57c0-.18-.06-.36-.08-.53l-.09-.51c0-.17,0-.33-.08-.49s0-.31-.07-.46,0-.29-.07-.42l-.06-.4v0l0-.12,0-.12s0-.08,0-.12l0-.12,0-.12,0-.12,0-.12,0-.13s0-.08,0-.12a10.13,10.13,0,0,1,0-.25s0-.08,0-.12l0-.12s0-.09,0-.13,0-.09,0-.13,0-.08,0-.13v0l-.06-.47c0-.15,0-.31,0-.47s0-.32,0-.48,0-.32,0-.48,0-.33,0-.49,0-.33,0-.49,0-.33,0-.49,0-.33,0-.5,0-.33,0-.5,0-.34.07-.5,0-.34.08-.51l.09-.51c0-.16.07-.33.11-.5s.07-.34.11-.51.09-.34.14-.5.09-.34.14-.51c.13-.41.33-.91.58-1.49s.55-1.23.91-2,.76-1.51,1.2-2.35.92-1.73,1.43-2.66,1-1.88,1.6-2.86,1.13-2,1.72-3,1.18-2,1.79-3.07l1.8-3.06,1.77-2.95,1.68-2.79,1.55-2.55,1.38-2.25,1.15-1.86c.34-.54.63-1,.87-1.41l.56-.9.2-.32.75.7c0-.15-.08-.31-.13-.47s-.08-.32-.13-.48-.08-.33-.13-.49-.09-.34-.13-.51-.1-.34-.14-.52l-.15-.53c0-.17-.09-.35-.14-.53l-.15-.55c-.05-.18-.09-.37-.14-.55l-.15-.56-.15-.56-.15-.56c0-.19-.11-.38-.16-.56l-.15-.57c0-.19-.1-.38-.16-.57l-.15-.56c-.26-.06-.51-.13-.77-.21l-.76-.26c-.25-.1-.5-.2-.75-.32l-.72-.36c-.24-.14-.48-.28-.71-.43s-.47-.31-.7-.48-.45-.34-.67-.53a8.6,8.6,0,0,1-.64-.58q-.33-.3-.63-.63l-.6-.68c-.19-.24-.38-.48-.56-.74s-.37-.51-.54-.78-.34-.55-.5-.84-.32-.59-.47-.9-.3-.61-.43-.94-.27-.65-.4-1l-.12-.05-.12,0-.12,0-.12-.07-.12-.07-.12-.07-.12-.08-.11-.08-.12-.09-.11-.09-.1-.09-.11-.09-.1-.11-.1-.1-.09-.1-.09-.11-.45-.54-.44-.55-.44-.57c-.15-.19-.29-.38-.43-.58s-.29-.39-.43-.59l-.42-.61-.4-.62c-.13-.21-.26-.42-.38-.63l-.37-.65c-.12-.22-.23-.45-.34-.67s-.22-.46-.33-.69-.2-.47-.29-.71-.19-.49-.27-.73-.17-.5-.24-.76-.14-.51-.21-.77-.11-.53-.17-.8c0-.05,0-.1,0-.15l0-.15s0-.1,0-.16a.77.77,0,0,1,0-.15c0-.23-.06-.45-.08-.68s0-.46,0-.69,0-.47,0-.71,0-.47,0-.7,0-.58.08-.87.08-.57.13-.86.11-.57.18-.85.14-.56.22-.83.18-.55.28-.81.21-.52.33-.77.24-.5.37-.73a7.92,7.92,0,0,1,.42-.69c.15-.22.31-.43.47-.63s.34-.39.52-.57a6.66,6.66,0,0,1,.56-.5,5.08,5.08,0,0,1,.61-.42l-.11-.06-.11-.07-.11-.07-.1-.08-.09-.08-.1-.09-.09-.1-.08-.1-.08-.11a1,1,0,0,1-.08-.11l-.07-.11-.07-.12-.06-.13a1.12,1.12,0,0,0,0-.13.69.69,0,0,1,0-.13.78.78,0,0,1,0-.14l2.67-2-.11,0-.12,0-.11,0-.12,0h-.1l-.14,0h-.71l-.14,0-.14,0-.14,0-.14,0-.13-.05-.14-.07.21,0h.24l.06,0,.07,0,.07,0a.13.13,0,0,0,.08,0l.07,0,.08,0,.08-.05.08,0a5.88,5.88,0,0,0,.51-.35c.18-.14.38-.29.58-.47s.4-.36.62-.56l.66-.65.68-.7q.35-.36.69-.75c.24-.25.47-.51.71-.77l.7-.77.68-.78.67-.74.62-.71.58-.64.54-.57c.16-.18.32-.34.47-.48s.27-.27.39-.37.23-.19.32-.25l.14-.08.15-.1.14-.09.15-.1.14-.09.15-.09.15-.09a.71.71,0,0,1,.14-.1l.15-.09.15-.09.14-.09.15-.09.15-.09.14-.09.15-.09.14-.09.51-.29.51-.29.51-.27.52-.26.51-.23.51-.22.51-.2.52-.18.11,0,.11,0,.11,0,.11,0h0l.06,0h0l.06,0h.1l.06,0h0l.15,0,.15,0,.15,0,.15,0,.14,0,.15,0,.14,0h.15l.51,0h.51l.51,0,.51.08.3.08.3.08.3.1.3.1.29.11.29.12.29.12.28.14.28.14.28.15.28.16.27.17.27.17.27.18.26.19.25.19.74.53.72.57.71.59c.24.2.47.41.7.62l.67.66c.22.22.43.45.64.69s.41.47.61.72l.58.75c.18.26.36.52.53.79s.34.54.5.82.3.57.44.86.27.59.39.89.23.62.33.94.2.64.28,1,.15.67.21,1,.11.7.14,1.06l-1.23.15c0,.09,0,.17.07.25s.05.17.08.25l.09.24.09.24c0,.07.06.15.1.23a2.29,2.29,0,0,0,.1.23l.1.22.12.22.11.22.12.2.12.21.12.2.14.19c0,.06.09.12.13.19l.14.18.15.18,0,0,0,0h0l0,0,0,0,0,0,0,.06s0,0,0,.07l0,.09a.29.29,0,0,1,0,.09s0,.07,0,.1,0,.07,0,.1v.24s0,0,0,.08v.1s0,.07,0,.1l0,.09,0,.09,0,.08,2.61,4.2-.08,0-.07,0-.07,0-.07,0-.07,0-.07,0-.07,0-.07,0-.07,0-.07,0-.07,0-.06,0-.07,0-.07,0-.07,0-.06,0-.08.06-.08.06-.08.06-.08.06-.07.06-.07.07-.08.07-.07.07-.07.07-.07.07-.07.08-.07.08-.06.08a.27.27,0,0,0-.07.08l-.06.08-.07.09c0,.27,0,.54.06.82l0,.82c0,.27,0,.55,0,.82s0,.55,0,.83,0,.55,0,.82,0,.55-.07.82-.06.54-.1.82-.07.54-.11.81l-.15.81c0,.27-.11.54-.17.81s-.12.53-.18.8l-.21.79-.24.79c-.08.26-.17.52-.26.78s-.18.51-.28.76l-.3.76c0,.13,0,.27,0,.41s0,.27,0,.41,0,.27,0,.4l.06.41.06.4.06.39.06.4.06.39c0,.13,0,.25.07.38l.06.38c0,.13,0,.25.07.37s0,.25.07.37,0,.24.08.36,0,.24.07.36,0,.23.08.35.05.22.08.33l.19-.26a.18.18,0,0,1,0-.07l0-.06,0-.06,0-.06.05-.05.06-.06,0,0,.06-.06.06,0,.05-.05.06,0,.06,0,0,0,.06,0,.06,0,.06,0,0,0,.06,0,.06,0,.06,0h.09a2.4,2.4,0,0,1,.4-.06h.43a3.5,3.5,0,0,1,.45.07l.48.12c.19.06.38.14.58.22s.39.17.59.27a6.45,6.45,0,0,1,.58.31l.57.34.53.34.5.35.45.32.39.3.32.26.24.2.15.13,0,0h0l.08,0,.12,0,.18-.05.34-.09.43-.11.52-.14.59-.14c.34-.09.72-.17,1.12-.26l1.28-.27,1.38-.26,1.47-.22c.49-.07,1-.13,1.49-.18s1-.1,1.5-.12,1,0,1.48,0,1,0,1.41.06a10.8,10.8,0,0,1,1.32.17,8.77,8.77,0,0,1,1.2.29,6.24,6.24,0,0,1,1,.44,4.26,4.26,0,0,1,.88.6l.58-.24,6.64,15.47c.43-1.16.85-2.33,1.24-3.51s.76-2.35,1.11-3.54.68-2.37,1-3.56.6-2.39.86-3.59.51-2.4.73-3.6.42-2.41.6-3.61.34-2.41.48-3.62.26-2.42.35-3.63.18-2.42.23-3.63.09-2.42.1-3.62,0-2.42,0-3.62-.09-2.41-.17-3.61-.17-2.41-.3-3.61-.26-2.4-.43-3.59-.36-2.38-.58-3.56-.45-2.35-.72-3.52c-.21-1-.45-1.93-.69-2.88s-.51-1.89-.79-2.82-.57-1.85-.88-2.76-.63-1.82-1-2.7-.7-1.79-1.07-2.66-.76-1.74-1.16-2.59-.82-1.69-1.25-2.52-.88-1.64-1.34-2.44-1-1.61-1.45-2.4-1-1.55-1.54-2.31-1.07-1.5-1.63-2.22-1.13-1.44-1.72-2.13-1.2-1.39-1.83-2.06-1.26-1.32-1.92-2-1.33-1.25-2-1.85-1.39-1.17-2.11-1.73-1.73-1.31-2.62-1.92-1.79-1.18-2.71-1.71-1.84-1-2.77-1.5-1.89-.9-2.85-1.3-2-.77-3-1.11-2-.62-3-.88-2-.49-3.08-.67-2.07-.33-3.12-.45-2.14-.18-3.21-.22-2.16,0-3.25,0-2.18.12-3.28.24-2.19.27-3.29.47l-.1,0-.1,0h-.1l-.1,0" transform="translate(-412.6 -49.83)"/><path classname="cls-11" d="M1279.66,788c-.1.24-.2.48-.31.71l-.33.71c-.11.23-.23.46-.35.69s-.24.46-.37.69l-.39.66c-.13.22-.27.44-.41.65s-.28.43-.43.64-.29.41-.44.62l-.47.6-.48.58-.51.57-.52.54-.54.53-.55.5c-.19.16-.38.32-.58.47l-.58.46-.67.46-.68.43-.68.38-.69.35-.57.25c-.19.09-.39.16-.58.23s-.38.14-.58.21l-.57.17h0l-.12,0-.11,0-.12,0-.11,0-.7.14-.69.1-.7.06-.69,0c-.22,0-.45,0-.68,0l-.68,0-.68-.1-.67-.13.15.56c.06.19.11.38.16.57l.15.57c0,.18.11.37.16.56l.15.56.15.56.15.56c0,.18.09.37.14.55l.15.55c0,.18.1.36.14.53l.15.53c0,.18.09.35.14.52s.09.34.13.51.09.33.13.49.09.32.13.48.09.32.13.47l5.87,5.46,3.08,13.54.12,0,.12,0,.13,0,.13,0,.13,0,.13,0,.13,0,.14,0,.13-.05.14,0,.14,0,.14-.05.15,0,.15,0,.15-.06.16,0,.11,0,.1,0,.11,0,.11,0,.11,0,.11,0,.1-.06.11-.06.1-.06.11-.06.1-.06.11-.07.1-.07.1-.08.1-.08.1-.08.12-.09.11-.11.12-.1a1.14,1.14,0,0,1,.11-.11l.11-.12.11-.11.11-.12.11-.13.1-.12a1.47,1.47,0,0,1,.1-.13l.1-.14a1.13,1.13,0,0,0,.1-.13l.1-.14.09-.14.09-.15a1.1,1.1,0,0,0,.09-.14c-.08-.61-.17-1.21-.25-1.81s-.17-1.18-.25-1.75-.17-1.15-.25-1.71-.16-1.1-.24-1.63-.15-1.06-.22-1.57-.15-1-.21-1.48-.14-.94-.21-1.39-.13-.87-.19-1.28-.11-.81-.17-1.18-.1-.72-.15-1l-.13-.92c0-.28-.08-.53-.12-.76s-.06-.44-.09-.62,0-.33-.07-.45l0-.28v-.1l0-.1.09-.28c0-.12.09-.28.15-.45l.2-.6c.08-.22.16-.46.25-.72l.28-.82.33-.9q.16-.47.36-1c.12-.33.25-.66.38-1s.26-.67.4-1l.42-1c.14-.33.28-.66.43-1s.29-.63.44-.93.29-.59.44-.87.29-.54.43-.78l.43-.67c0-.11-.06-.22-.08-.33s0-.23-.08-.35,0-.24-.07-.36,0-.24-.08-.36,0-.24-.07-.37,0-.24-.07-.37l-.06-.38c0-.13,0-.25-.07-.38l-.06-.39-.06-.4-.06-.39-.06-.4-.06-.41c0-.13,0-.27,0-.4s0-.28,0-.41,0-.28,0-.41" transform="translate(-412.6 -49.83)"/><path classname="cls-12" d="M1267.33,767.24l-.49.14a4.74,4.74,0,0,0-.5.15l-.49.16-.5.18-.5.19-.49.19-.5.2-.49.2-.26.11-.25.11-.26.11-.27.12-.26.11-.25.11-.26.12-.26.12a799039391179.84,799039391179.84,0,0,1-.52.26,2.1,2.1,0,0,0-.26.13l-.26.13-.26.14-.25.15-.25.15-.26.16-.19.13-.18.12-.19.13-.19.14-.18.14-.19.14-.18.15-.18.15-.18.16-.17.16-.17.17c-.06.06-.12.11-.17.17l-.17.18-.16.18-.17.19c0,.06-.1.13-.16.19s-.24.31-.35.47a4.45,4.45,0,0,0-.33.51,5.54,5.54,0,0,0-.3.53c-.1.18-.19.37-.28.56l-.24.58a5.89,5.89,0,0,0-.21.59c-.06.2-.12.41-.17.61s-.1.41-.14.61l-.09.61c0,.21,0,.41,0,.61s0,.4,0,.6,0,.39,0,.58l.09.57a4.26,4.26,0,0,0,.15.54,4.6,4.6,0,0,0,.19.52c.07.16.16.32.25.48l-.15.05-.14.07-.14.08-.13.08-.17.12-.17.14-.16.15a1.07,1.07,0,0,0-.14.16,1.15,1.15,0,0,0-.14.17,1.18,1.18,0,0,0-.13.18,1.27,1.27,0,0,0-.13.19,2.12,2.12,0,0,1-.11.21,1.24,1.24,0,0,0-.1.2l-.09.22a2,2,0,0,0-.08.22c0,.08,0,.16-.07.23l-.06.24c0,.08,0,.15,0,.23l0,.24c0,.08,0,.17,0,.25a1.31,1.31,0,0,0,0,.28v.28c0,.1,0,.19,0,.28a2.64,2.64,0,0,0,0,.28v.1a.41.41,0,0,1,0,.11s0,.06,0,.1v.1c0,.06,0,.12,0,.17l0,.17,0,.17,0,.17a2,2,0,0,0,0,.26,2,2,0,0,0,0,.26c0,.09,0,.18.07.26a2.5,2.5,0,0,0,.07.26c0,.08,0,.16.08.25a2.25,2.25,0,0,0,.08.24l.09.24a2.44,2.44,0,0,0,.1.24l-.12.22-.13.19-.15.15-.15.12-.08,0-.08.05-.08,0-.08,0h-.62l-.09,0h-.1l-.09,0-.1,0-.1,0c.13.33.26.66.4,1s.28.64.43.94.31.61.47.9.33.57.5.84.35.53.54.78.37.5.56.74l.6.68q.3.33.63.63a8.6,8.6,0,0,0,.64.58c.22.19.45.37.67.53s.46.33.7.48.47.29.71.43l.72.36c.25.12.5.22.75.32l.76.26c.26.08.51.15.77.21l.67.13.68.1.68,0c.23,0,.46,0,.68,0l.69,0,.7-.06.69-.1.7-.14.11,0,.12,0,.11,0,.12,0h0l.57-.17c.2-.07.39-.13.58-.21s.39-.14.58-.23l.57-.25.69-.35.68-.38.68-.43.67-.46.58-.46c.2-.15.39-.31.58-.47l.55-.5.54-.53.52-.54.51-.57.48-.58.47-.6c.15-.21.3-.41.44-.62s.29-.42.43-.64.28-.43.41-.65l.39-.66c.13-.23.25-.46.37-.69s.24-.46.35-.69l.33-.71c.11-.23.21-.47.31-.71l.3-.76c.1-.25.19-.51.28-.76s.18-.52.26-.78l.24-.79.21-.79c.06-.27.13-.54.18-.8s.12-.54.17-.81l.15-.81c0-.27.08-.54.11-.81s.07-.55.1-.82,0-.55.07-.82,0-.55,0-.82,0-.55,0-.83,0-.55,0-.82l0-.82c0-.28,0-.55-.06-.82l-.16.23-.15.23-.14.25c0,.09-.09.18-.14.26l-.12.27c0,.09-.08.18-.11.27s-.08.19-.11.29l-.09.28c0,.1-.06.2-.08.3s0,.2-.07.3l-.06.3c0,.1,0,.21,0,.31s0,.21,0,.31,0,.21,0,.32v.31c0,.11,0,.22,0,.32v.13l0,.13v.13l0,.13c-.11-.35-.23-.7-.35-1.06s-.25-.72-.37-1.07-.26-.72-.4-1.08-.27-.71-.41-1.06-.29-.71-.44-1.05-.3-.69-.46-1-.33-.66-.5-1-.34-.64-.53-.95-.37-.61-.56-.9-.4-.56-.61-.83a9.61,9.61,0,0,0-.65-.76c-.22-.24-.45-.47-.68-.68a8.45,8.45,0,0,0-.75-.59,7,7,0,0,0-.79-.49,8,8,0,0,0-.84-.38,9.07,9.07,0,0,0-.89-.26l-.47-.08-.48-.05h-1l-.48.05-.49.07-.49.09-.49.11" transform="translate(-412.6 -49.83)"/><path classname="cls-4" d="M1279,855.64l-.33.19-.33.2-.33.19-.32.19-.33.18-.34.19-.33.18-.33.18-.33.18-.34.18-.33.17-.34.17-.33.17-.34.16-.34.17-.34.16.34-.16.34-.17.34-.16.33-.17.34-.17.33-.17.34-.18.33-.18.33-.18.33-.18.34-.19.33-.18.32-.19.33-.19.33-.2.33-.19m-.78-31.47a1.1,1.1,0,0,1-.09.14l-.09.15-.09.14-.1.14a1.13,1.13,0,0,1-.1.13l-.1.14a1.47,1.47,0,0,0-.1.13l-.1.12-.11.13-.11.12-.11.11-.11.12a1.14,1.14,0,0,0-.11.11l-.12.1-.11.11-.12.09-.1.08-.1.08-.1.08-.1.07-.11.07-.1.06-.11.06-.1.06-.11.06-.1.06-.11,0-.11,0-.11,0-.11,0-.1,0-.11,0-.16,0-.15.06-.15,0-.15,0-.14.05-.14,0-.14,0-.13.05-.14,0-.13,0-.13,0-.13,0-.13,0-.13,0-.12,0-.12,0,1.44,6.38,4.88,21.44.18-.11.19-.12.19-.11.18-.11.17-.11.16-.1.17-.1.16-.11h0l0,0h0l.19-.12.18-.12.19-.12.18-.12.19-.13.18-.12.19-.13.18-.12c0-.32-.06-.66-.09-1s-.07-.7-.11-1.07l-.12-1.14c0-.39-.08-.79-.13-1.2s-.09-.83-.14-1.26-.1-.87-.16-1.32-.1-.9-.16-1.36-.11-.92-.17-1.4-.12-1-.18-1.44-.12-1-.19-1.47-.13-1-.19-1.51-.14-1-.2-1.53l-.21-1.55-.21-1.57-.21-1.57c-.07-.53-.15-1.06-.22-1.59l-.06-.48c0-.16,0-.32-.07-.48s-.05-.31-.07-.47l-.06-.48-.07-.48-.06-.48-.07-.48-.06-.47-.07-.48-.06-.47-.07-.48-.06-.47c0-.16,0-.31-.07-.47s0-.31-.07-.47l-.06-.46c0-.16,0-.31-.07-.46" transform="translate(-412.6 -49.83)"/><path classname="cls-4" d="M1250.14,863.56h0m-8.07-12c0,.05,0,.09,0,.13s0,.09,0,.13,0,.08,0,.13l0,.12s0,.08,0,.12a10.13,10.13,0,0,0,0,.25s0,.08,0,.12l0,.13,0,.12,0,.12,0,.12,0,.12s0,.08,0,.12l0,.12,0,.12a1.55,1.55,0,0,0,0-.21l0-.19,0-.19a1,1,0,0,1,0-.17c0-.06,0-.11,0-.16l0-.15a.59.59,0,0,0,0-.14s0-.09,0-.13,0-.09,0-.12l0-.11s0-.07,0-.1a.24.24,0,0,1,0-.08v-.22M1263,808.12l-.2.32-.56.9c-.24.39-.53.87-.87,1.41l-1.15,1.86-1.38,2.25-1.55,2.55-1.68,2.79-1.77,2.95-1.8,3.06c-.61,1-1.21,2-1.79,3.07s-1.17,2-1.72,3-1.09,1.94-1.6,2.86-1,1.82-1.43,2.66-.85,1.63-1.2,2.35-.66,1.38-.91,2-.45,1.08-.58,1.49c0,.17-.1.34-.14.51s-.09.33-.14.5-.08.34-.11.51-.08.34-.11.5l-.09.51c0,.17-.06.34-.08.51s-.05.33-.07.5,0,.34,0,.5,0,.33,0,.5,0,.33,0,.49,0,.33,0,.49,0,.33,0,.49,0,.32,0,.48,0,.32,0,.48,0,.32,0,.47l.06.47,10.7-8.69,6.68,20.16.91-.16.92-.17.9-.19c.31-.07.61-.13.91-.21l.9-.22.9-.24.9-.26.89-.28.2-.06.2-.07.2-.06.2-.07.69-.23.68-.25.68-.25.68-.26.88-.35.87-.37.86-.39.86-.4.34-.16.34-.17.34-.16.33-.17.34-.17.33-.17.34-.18.33-.18.33-.18.33-.18.34-.19.33-.18.32-.19.33-.19.33-.2.33-.19-4.88-21.44-1.44-6.38-3.08-13.54-5.87-5.46-.75-.7" transform="translate(-412.6 -49.83)"/><path classname="cls-6" d="M1281.54,768h0v0h0l0,0v0h0m-16.47-18.17h0l-.06,0h-.1l-.06,0h0l-.06,0h0l-.11,0-.11,0-.11,0-.11,0-.52.18-.51.2-.51.22-.51.23-.52.26-.51.27-.51.29-.51.29-.14.09-.15.09-.14.09-.15.09-.15.09-.14.09-.15.09-.15.09a.71.71,0,0,0-.14.1l-.15.09-.15.09-.14.09-.15.1-.14.09-.15.1-.14.08c-.09.06-.2.15-.32.25s-.25.23-.39.37-.31.3-.47.48l-.54.57-.58.64-.62.71-.67.74-.68.78-.7.77c-.24.26-.47.52-.71.77s-.46.51-.69.75l-.68.7-.66.65c-.22.2-.42.39-.62.56s-.4.33-.58.47a5.88,5.88,0,0,1-.51.35l-.08,0-.08.05-.08,0-.07,0a.13.13,0,0,1-.08,0l-.07,0-.07,0-.06,0h-.24l-.21,0,.14.07.13.05.14,0,.14,0,.14,0,.14,0h.71l.14,0h.1l.12,0,.11,0,.12,0,.11,0-2.67,2a.78.78,0,0,0,0,.14.69.69,0,0,0,0,.13,1.12,1.12,0,0,1,0,.13l.06.13.07.12.07.11a1,1,0,0,0,.08.11l.08.11.08.1.09.1.1.09.09.08.1.08.11.07.11.07.11.06a5.08,5.08,0,0,0-.61.42,6.66,6.66,0,0,0-.56.5c-.18.18-.35.37-.52.57s-.32.41-.47.63a7.92,7.92,0,0,0-.42.69c-.13.23-.25.48-.37.73s-.23.51-.33.77-.19.53-.28.81-.15.55-.22.83-.13.56-.18.85-.09.57-.13.86-.06.58-.08.87,0,.47,0,.7,0,.47,0,.71,0,.46,0,.69,0,.45.08.68a.77.77,0,0,0,0,.15c0,.06,0,.11,0,.16l0,.15c0,.05,0,.1,0,.15.06.27.11.54.17.8s.13.52.21.77.15.51.24.76.17.49.27.73.19.48.29.71.21.46.33.69.22.45.34.67l.37.65c.12.21.25.42.38.63l.4.62.42.61c.14.2.28.4.43.59s.28.39.43.58l.44.57.44.55.45.54.09.11.09.1.1.1.1.11.11.09.1.09.11.09.12.09.11.08.12.08.12.07.12.07.12.07.12,0,.12,0,.12.05.1,0,.1,0,.09,0h.1l.09,0h.62l.08,0,.08,0,.08-.05.08,0,.15-.12.15-.15.13-.19.12-.22a2.44,2.44,0,0,1-.1-.24l-.09-.24a2.25,2.25,0,0,1-.08-.24c0-.09-.06-.17-.08-.25a2.5,2.5,0,0,1-.07-.26c0-.08-.05-.17-.07-.26a2,2,0,0,1,0-.26,2,2,0,0,1,0-.26l0-.17,0-.17,0-.17s0-.11,0-.17V787s0-.07,0-.1a.41.41,0,0,0,0-.11v-.1a2.64,2.64,0,0,1,0-.28c0-.09,0-.18,0-.28v-.28a1.31,1.31,0,0,1,0-.28c0-.08,0-.17,0-.25l0-.24c0-.08,0-.15,0-.23l.06-.24c0-.07,0-.15.07-.23a2,2,0,0,1,.08-.22l.09-.22a1.24,1.24,0,0,1,.1-.2,2.12,2.12,0,0,0,.11-.21,1.27,1.27,0,0,1,.13-.19,1.18,1.18,0,0,1,.13-.18,1.15,1.15,0,0,1,.14-.17,1.07,1.07,0,0,1,.14-.16l.16-.15.17-.14.17-.12.13-.08.14-.08.14-.07.15-.05c-.09-.16-.18-.32-.25-.48a4.6,4.6,0,0,1-.19-.52,4.26,4.26,0,0,1-.15-.54l-.09-.57c0-.19,0-.39,0-.58s0-.4,0-.6,0-.4,0-.61l.09-.61c0-.2.09-.41.14-.61s.11-.41.17-.61a5.89,5.89,0,0,1,.21-.59l.24-.58c.09-.19.18-.38.28-.56a5.54,5.54,0,0,1,.3-.53,4.45,4.45,0,0,1,.33-.51c.11-.16.23-.32.35-.47s.11-.13.16-.19l.17-.19.16-.18.17-.18c0-.06.11-.11.17-.17l.17-.17.17-.16.18-.16.18-.15.18-.15.19-.14.18-.14.19-.14.19-.13.18-.12.19-.13.26-.16.25-.15.25-.15.26-.14.26-.13a2.1,2.1,0,0,1,.26-.13,799039391179.84,799039391179.84,0,0,0,.52-.26l.26-.12.26-.12.25-.11.26-.11.27-.12.26-.11.25-.11.26-.11.49-.2.5-.2.49-.19.5-.19.5-.18.49-.16a4.74,4.74,0,0,1,.5-.15l.49-.14.49-.11.49-.09.49-.07.48-.05h1l.48.05.47.08a9.07,9.07,0,0,1,.89.26,8,8,0,0,1,.84.38,7,7,0,0,1,.79.49,8.45,8.45,0,0,1,.75.59c.23.21.46.44.68.68a9.61,9.61,0,0,1,.65.76c.21.27.41.54.61.83s.38.59.56.9.36.62.53.95.34.65.5,1,.31.68.46,1,.3.69.44,1.05.28.71.41,1.06.27.72.4,1.08.25.71.37,1.07.24.71.35,1.06l0-.13V780l0-.13v-.13c0-.1,0-.21,0-.32v-.31c0-.11,0-.21,0-.32s0-.21,0-.31,0-.21,0-.31l.06-.3c0-.1,0-.2.07-.3s.05-.2.08-.3l.09-.28c0-.1.07-.19.11-.29s.07-.18.11-.27l.12-.27c.05-.08.09-.17.14-.26l.14-.25.15-.23.16-.23.07-.09.06-.08a.27.27,0,0,1,.07-.08l.06-.08.07-.08.07-.08.07-.07.07-.07.07-.07.08-.07.07-.07.07-.06.08-.06.08-.06.08-.06.08-.06.06,0,.07,0,.07,0,.07,0,.06,0,.07,0,.07,0,.07,0,.07,0,.07,0,.07,0,.07,0,.07,0,.07,0,.07,0,.08,0-2.61-4.2,0-.08,0-.09,0-.09s0-.06,0-.1v-.1s0-.05,0-.08v-.24s0-.06,0-.1,0-.06,0-.1a.29.29,0,0,0,0-.09l0-.09s0,0,0-.07l0-.06,0,0,0,0,0,0h0l0,0,0,0-.15-.18-.14-.18c0-.07-.09-.13-.13-.19l-.14-.19-.12-.2-.12-.21-.12-.2-.11-.22-.12-.22-.1-.22a2.29,2.29,0,0,1-.1-.23c0-.08-.07-.16-.1-.23l-.09-.24-.09-.24c0-.08-.05-.16-.08-.25s0-.16-.07-.25l1.23-.15c0-.36-.08-.71-.14-1.06s-.13-.68-.21-1-.18-.66-.28-1-.21-.63-.33-.94-.25-.6-.39-.89-.29-.58-.44-.86-.32-.55-.5-.82-.35-.53-.53-.79l-.58-.75c-.2-.25-.4-.49-.61-.72s-.42-.47-.64-.69l-.67-.66c-.23-.21-.46-.42-.7-.62l-.71-.59-.72-.57-.74-.53-.25-.19-.26-.19-.27-.18-.27-.17-.27-.17-.28-.16-.28-.15-.28-.14-.28-.14-.29-.12-.29-.12-.29-.11-.3-.1-.3-.1-.3-.08-.3-.08-.51-.08-.51,0h-.51l-.51,0h-.15l-.14,0-.15,0-.14,0-.15,0-.15,0-.15,0-.15,0" transform="translate(-412.6 -49.83)"/><path classname="cls-4" d="M1282.08,792.93H1282l-.06,0-.06,0-.06,0,0,0-.06,0-.06,0-.06,0,0,0-.06,0-.06,0-.05.05-.06,0-.06.06,0,0-.06.06-.05.05,0,.06,0,.06,0,.06a.18.18,0,0,0,0,.07l-.19.26-.43.67c-.14.24-.29.51-.43.78s-.3.57-.44.87-.3.61-.44.93-.29.65-.43,1l-.42,1c-.14.34-.27.68-.4,1s-.26.67-.38,1-.25.65-.36,1l-.33.9-.28.82c-.09.26-.17.5-.25.72l-.2.6c-.06.17-.11.33-.15.45l-.09.28,0,.1v.1l0,.28c0,.12,0,.27.07.45s.06.38.09.62.08.48.12.76l.13.92c.05.32.1.67.15,1s.11.77.17,1.18.13.84.19,1.28.14.91.21,1.39.14,1,.21,1.48.15,1,.22,1.57.16,1.08.24,1.63.16,1.13.25,1.71.16,1.16.25,1.75.17,1.2.25,1.81c0,.15,0,.3.07.46l.06.46c0,.16.05.31.07.47s0,.31.07.47l.06.47.07.48.06.47.07.48.06.47.07.48.06.48.07.48.06.48c0,.16.05.32.07.47s0,.32.07.48l.06.48c.07.53.15,1.06.22,1.59l.21,1.57.21,1.57.21,1.55c.06.52.13,1,.2,1.53s.13,1,.19,1.51.13,1,.19,1.47.12,1,.18,1.44.12.94.17,1.4.11.92.16,1.36.11.89.16,1.32.09.85.14,1.26.09.81.13,1.2l.12,1.14c0,.37.07.73.11,1.07s.06.69.09,1l.35-.24.34-.23.35-.25.34-.24.11-.08.11-.08.11-.08.11-.07.44-.33.45-.33c.15-.11.3-.22.44-.34l.45-.34.43-.34.44-.35c.15-.11.29-.23.43-.35l.44-.35.43-.36.42-.36.43-.37.42-.37.06,0,.06-.06.06,0,.06,0,.06-.06.06,0,.06-.05.06-.06.06-.05.06,0,.06,0,.06-.06.22-.2h0l.24-.22.24-.22.24-.22.24-.23.23-.22.24-.23.23-.22.23-.23.23-.22.23-.23a2.5,2.5,0,0,0,.23-.23,2.5,2.5,0,0,0,.23-.23c.08-.08.16-.15.23-.23l.23-.23.23-.23.22-.23.9-.95.89-1c.3-.33.59-.65.88-1s.58-.66.86-1,.57-.67.85-1l.84-1,.82-1.05.8-1.06.79-1.07.78-1.09c.26-.36.51-.73.76-1.1s.51-.74.75-1.12.49-.75.73-1.13l.72-1.14c.24-.38.47-.77.7-1.15l.69-1.17.21-.36c.07-.11.13-.23.2-.35s.14-.23.2-.35.14-.24.2-.36.14-.24.2-.36l.2-.36.2-.36.19-.36.2-.36c.06-.12.12-.24.19-.36s.12-.24.19-.36l.18-.37c.07-.12.13-.24.19-.36s.13-.25.19-.37l.19-.37.18-.36-.18.36-.19.37c-.06.12-.12.25-.19.37s-.12.24-.19.36l-.18.37c-.07.12-.13.24-.19.36s-.13.24-.19.36l-.2.36-.19.36-.2.36-.2.36c-.06.12-.13.24-.2.36s-.13.24-.2.36-.13.23-.2.35-.13.24-.2.35l-.21.36-3.81-8.17-3.83-19.48,7.85-3.37a4.26,4.26,0,0,0-.88-.6,6.24,6.24,0,0,0-1-.44,8.77,8.77,0,0,0-1.2-.29,10.8,10.8,0,0,0-1.32-.17q-.69-.06-1.41-.06c-.49,0-1,0-1.48,0s-1,.07-1.5.12-1,.11-1.49.18l-1.47.22-1.38.26-1.28.27c-.4.09-.78.17-1.12.26l-.59.14-.52.14-.43.11-.34.09-.18.05-.12,0-.08,0h0l0,0-.15-.13-.24-.2-.32-.26-.39-.3-.45-.32-.5-.35-.53-.34-.57-.34a6.45,6.45,0,0,0-.58-.31c-.2-.1-.39-.19-.59-.27s-.39-.16-.58-.22l-.48-.12a3.5,3.5,0,0,0-.45-.07h-.43a2.4,2.4,0,0,0-.4.06" transform="translate(-412.6 -49.83)"/><path classname="cls-4" d="M1252.77,842.83l-10.7,8.69v.24a.24.24,0,0,0,0,.08s0,.06,0,.1l0,.11s0,.07,0,.12,0,.08,0,.13a.59.59,0,0,1,0,.14l0,.15s0,.1,0,.16a1,1,0,0,0,0,.17l0,.19,0,.19a1.55,1.55,0,0,1,0,.21v0l.06.4c0,.13,0,.28.07.42s0,.3.07.46.05.32.08.49l.09.51c0,.17,0,.35.08.53l.09.57c0,.19.07.38.1.58s.06.4.1.61.07.41.1.63.07.43.11.65.07.44.11.67.07.45.11.68.07.47.11.7l.12.72c0,.24.07.49.12.73l.38.08.39.06.39.07.39.06.38.06.39,0,.39,0,.39,0,.39,0,.39,0,.39,0,.4,0,.38,0,.39,0,.39,0h3.58l.56,0,.56,0,.56,0,.56,0,.55,0,.56-.06.55-.06.56-.06.55-.08.56-.07.55-.09h0l-6.68-20.16" transform="translate(-412.6 -49.83)"/><path classname="cls-4" d="M1307.24,795.52l-.58.24-7.85,3.37,3.83,19.48,3.81,8.17.21-.36c.07-.11.13-.23.2-.35s.14-.23.2-.35.14-.24.2-.36.14-.24.2-.36l.2-.36.2-.36.19-.36.2-.36c.06-.12.12-.24.19-.36s.12-.24.19-.36l.18-.37c.07-.12.13-.24.19-.36s.13-.25.19-.37l.19-.37.18-.36.3-.61.3-.61c.09-.21.19-.41.29-.62s.19-.41.29-.61.19-.42.28-.62.19-.42.28-.62l.28-.63.27-.62c.09-.21.18-.42.26-.63l.27-.63.26-.63.26-.63c.08-.21.17-.42.25-.64s.16-.42.25-.64l.24-.64.24-.64-6.64-15.47" transform="translate(-412.6 -49.83)"/></g></g></g></g><g id="CompletAvatar"><rect classname="cls-13" x="193.68" y="93.54" width="250" height="10"/><rect classname="cls-13" x="193.68" y="124.23" width="250" height="10"/><rect classname="cls-13" x="231.18" y="158.39" width="175" height="10"/><rect classname="cls-13" x="193.68" y="193.26" width="250" height="10"/><rect classname="cls-13" x="188.77" y="226.58" width="150" height="10"/><path classname="cls-2" d="M539,92.12a106.74,106.74,0,0,1,0,213.48" transform="translate(-412.6 -49.83)"/><g id="Avatar-2" data-name="Avatar"><circle classname="cls-14" cx="134.47" cy="145.65" r="75"/><path classname="cls-15" d="M561,270.08l.67-.18.6-.18c0-.46,0-1,0-1.51.12-4.29.41-11.2,1.1-19.52,0-.44.08-.89.11-1.34.25-2.82.53-5.79.88-8.86l0-.31c.28-2.49.6-5.05,1-7.65q.38-2.75.81-5.53l.06-.39c.09-.54.17-1.08.26-1.62.25-1.5.51-3,.78-4.53,1-5.33,2.12-10.68,3.49-15.9a135.06,135.06,0,0,1,5.14-15.85,80.13,80.13,0,0,1,5.6-11.52l.09-.16a42.92,42.92,0,0,1,9.5-11.37l-.75-1.12a43.72,43.72,0,0,0-9.47,11.12l0,.06a78.26,78.26,0,0,0-5.63,11.16,130,130,0,0,0-5.38,16q-2.05,7.64-3.7,16.54c-.38,2.09-.75,4.24-1.09,6.43l-.18,1.13h0l-.27,1.74c-.21,1.48-.42,2.94-.61,4.39q-.45,3.34-.81,6.58c-.08.71-.16,1.42-.23,2.12-.1,1-.2,2-.3,2.93q-.2,2-.36,3.93l0,.36c0,.2,0,.4,0,.6C561.34,257.8,561.07,266,561,270.08Z" transform="translate(-412.6 -49.83)"/><path classname="cls-15" d="M577,263.44l.08,0,1.28-.76c.14-1.84.33-3.87.58-6,0-.44.1-.89.16-1.34l.09-.72c.25-1.88.54-3.82.89-5.76,1.44-7.95,3.81-16.06,7.75-21.07.22-.27.43-.53.66-.78a14.17,14.17,0,0,1,1.8-1.75l-.75-1.12a16.62,16.62,0,0,0-2.47,2.49c-.26.32-.52.66-.77,1-3.62,5-5.89,12.5-7.3,19.89-.37,1.93-.68,3.85-.94,5.73-.07.49-.14,1-.2,1.45C577.49,257.85,577.22,260.85,577,263.44Z" transform="translate(-412.6 -49.83)"/><path classname="cls-15" d="M573.12,168.36a33.75,33.75,0,0,1-1.61,15.85,32,32,0,0,1-6.45-14.28,33.75,33.75,0,0,1,1.61-15.85A32,32,0,0,1,573.12,168.36Z" transform="translate(-412.6 -49.83)"/><ellipse classname="cls-6" cx="131.5" cy="141.21" rx="34.39" ry="37.95"/><ellipse classname="cls-4" cx="134.33" cy="154.63" rx="20.83" ry="22.98"/><path classname="cls-4" d="M594.48,248.51h0l-4.85,1.28-10.08,2.67-1.38.37-15.34,4.06-1.3.34L524.3,267.1a67.34,67.34,0,0,1-7.37-3.66l-.07,0-.4-.24-.88-.52q-2.51-1.51-4.87-3.24c-.41-.29-.81-.59-1.21-.89l-.38-.3-.39-.3-1-.82c3.62-7.25,12.22-12.07,20.83-14.71,6.5-2,7.92-8.54,7.8-14.36a37.86,37.86,0,0,0-.3-4,43.09,43.09,0,0,0-1.25-6.18l20.82.77,2.15,5.47a13.53,13.53,0,0,0,0,1.8,10.94,10.94,0,0,0,5.76,9.25c.4.24.82.47,1.23.68a30,30,0,0,0,11,2.72,19.58,19.58,0,0,1,5.46.11c.44.08.87.17,1.28.27a17.83,17.83,0,0,1,6.73,3.32,19.48,19.48,0,0,1,2.18,2A19.09,19.09,0,0,1,594.48,248.51Z" transform="translate(-412.6 -49.83)"/><path classname="cls-6" d="M597.46,251.38a3,3,0,0,1-.12.43,71.48,71.48,0,0,1-5.79,5.24,22.77,22.77,0,0,1-5.4,1.42s.16.87.3,2.37l-1.66,1.09c-.73.46-1.47.91-2.21,1.34l-.91.52-1.34.73-.24.12-.88.47a66.06,66.06,0,0,1-12,4.71l-.07,0-.81.22-.61.16-.08,0-1.27.31-.71.16-.44.1-.54.11-.31.06-.69.14-1.17.21-.85.14-1,.14-.28,0-.36.05-.72.09-.38,0-.71.07-.93.09-1.13.09-.73,0c-.62,0-1.25.07-1.88.09l-.94,0h-.94a64.48,64.48,0,0,1-9.52-.7,62.11,62.11,0,0,1-6.83-1.39l-.27-.07-.68-.18-.59-.18a66.43,66.43,0,0,1-14.79-6.28l-.07,0-.4-.24c11.49-3,29.66-7.62,45.42-11.61l1.32-.33c5.82-1.48,11.28-2.85,15.89-4l1.4-.34c5-1.23,8.81-2.17,10.9-2.64a16.45,16.45,0,0,1,1.7-.33l4.36,7.46Z" transform="translate(-412.6 -49.83)"/><ellipse classname="cls-6" cx="100.04" cy="113.75" rx="10.24" ry="11.31"/><ellipse classname="cls-6" cx="162.96" cy="110.52" rx="10.24" ry="11.31"/><path classname="cls-6" d="M564.58,155.5c0-5.77,3.95-10.62,9.15-11.23-5.62-.68-10.68,3.8-11.3,10s3.45,11.78,9.07,12.46a9.24,9.24,0,0,0,2.23,0C568.53,166.12,564.58,161.28,564.58,155.5Z" transform="translate(-412.6 -49.83)"/><path classname="cls-6" d="M501.19,172.72a12.18,12.18,0,0,1-.6-15.09,12.13,12.13,0,0,0-1.72,15.88,9.62,9.62,0,0,0,14.39,1.9,11.84,11.84,0,0,0,1.59-1.72A9.55,9.55,0,0,1,501.19,172.72Z" transform="translate(-412.6 -49.83)"/><path classname="cls-6" d="M544.1,173.27c-12.13,0-22,6.33-22,14.13,0,3.49,2,6.68,5.24,9.15l4.23-3.38-1.15,5.3c.47.24,1,.48,1.47.69l6.31-8.13v10a33.85,33.85,0,0,0,5.86.51c12.12,0,21.95-6.32,21.95-14.13S556.22,173.27,544.1,173.27Z" transform="translate(-412.6 -49.83)"/><path classname="cls-6" d="M565.31,160.35s-1.59,8.07,8.36,11.3Z" transform="translate(-412.6 -49.83)"/><path classname="cls-6" d="M522.14,161.82s3.66,9-7.31,13.06Z" transform="translate(-412.6 -49.83)"/><ellipse classname="cls-4" cx="526.45" cy="209.05" rx="1.75" ry="4.57" transform="translate(-447.17 81.1) rotate(-13.73)"/><g id="ok"><circle classname="cls-10" cx="176.19" cy="199.39" r="30"/><g id="okicon"><line classname="cls-16" x1="162.44" y1="201.85" x2="173.85" y2="210.06"/><line classname="cls-16" x1="189.94" y1="183.16" x2="173.85" y2="211.02"/></g></g></g></g><g id="CompletAvatar-2" data-name="CompletAvatar"><rect classname="cls-13" x="727.22" y="128.26" width="250" height="10"/><rect classname="cls-13" x="727.22" y="158.95" width="250" height="10"/><rect classname="cls-13" x="764.72" y="193.12" width="175" height="10"/><rect classname="cls-13" x="727.22" y="227.98" width="250" height="10"/><rect classname="cls-13" x="722.31" y="261.31" width="150" height="10"/><path classname="cls-2" d="M1072.53,126.84a106.75,106.75,0,1,1,0,213.49" transform="translate(-412.6 -49.83)"/><g id="Avatar-3" data-name="Avatar"><circle classname="cls-14" cx="665.19" cy="174.18" r="75"/><path classname="cls-15" d="M1050.85,209.23a24.78,24.78,0,0,0,1.8,14.21s5.71-5.34,7.2-12.79a24.87,24.87,0,0,0-1.8-14.21S1052.34,201.78,1050.85,209.23Z" transform="translate(-412.6 -49.83)"/><ellipse classname="cls-4" cx="665.28" cy="167.6" rx="30.81" ry="27.29"/><path classname="cls-4" d="M1065.84,238.31s3.85,16.21,3.85,17.91,18.3,9.38,18.3,9.38l16.37-2.56,5.78-15.35s-9.63-12.79-9.63-17.9Z" transform="translate(-412.6 -49.83)"/><path classname="cls-6" d="M1150.71,256l-.26.54c-14.67,29.54-50.22,46.4-86.13,40.84l-1.42-.23a85.89,85.89,0,0,1-14.3-3.74c-.75-.26-1.49-.54-2.23-.83-.51-.19-1-.39-1.51-.6a82.15,82.15,0,0,1-12.92-6.68l-3.65-9.39,2-1.38,4.22-2.86,4.51-3,1.17-.8,17.68-11.95,1.31-.88,9.19-6.21h0s9.94,14.34,24.38,10.08,14.13-16.49,14.13-16.49Z" transform="translate(-412.6 -49.83)"/><path classname="cls-6" d="M1051.16,195.44s9.78-18.77,28.53-14.44,29.35,10.83,30.17,17.33-.41,16.24-.41,16.24-2-13.35-15.09-10.47-33.42.73-33.42.73l-3.26,26s-3.67-4.7-7.75-1.81S1038.11,201.22,1051.16,195.44Z" transform="translate(-412.6 -49.83)"/><path classname="cls-6" d="M1138.06,255.37l12.39,1.94a69.52,69.52,0,0,1-13.27,18.34Z" transform="translate(-412.6 -49.83)"/><g id="ok-2" data-name="ok"><circle classname="cls-10" cx="706.9" cy="227.92" r="30"/><g id="okicon-2" data-name="okicon"><line classname="cls-16" x1="693.15" y1="230.38" x2="704.57" y2="238.59"/><line classname="cls-16" x1="720.65" y1="211.69" x2="704.57" y2="239.55"/></g></g></g></g><g id="CompletAvatar-3" data-name="CompletAvatar"><rect classname="cls-13" x="205.87" y="371.57" width="250" height="10"/><rect classname="cls-13" x="205.87" y="402.25" width="250" height="10"/><rect classname="cls-13" x="243.37" y="436.42" width="175" height="10"/><rect classname="cls-13" x="205.87" y="471.28" width="250" height="10"/><rect classname="cls-13" x="200.96" y="504.61" width="150" height="10"/><path classname="cls-2" d="M551.18,370.15a106.74,106.74,0,0,1,0,213.48" transform="translate(-412.6 -49.83)"/><g id="Avatar-4" data-name="Avatar"><circle classname="cls-14" cx="146.66" cy="423.68" r="75"/></g></g><path classname="cls-3" d="M1278.15,683s-9,44,6,40,9-42,9-42Z" transform="translate(-412.6 -49.83)"/><g id="plus"><line classname="cls-17" x1="94.38" y1="422.27" x2="198.95" y2="422.27"/><line classname="cls-17" x1="146.66" y1="379.26" x2="146.66" y2="468.11"/></g></svg>