<svg width="209" height="164" viewBox="0 0 209 164" fill="none" xmlns="http://www.w3.org/2000/svg">
<path d="M92.4863 132.551L107.162 54.9773L129.892 70.2857L105.365 164H82.7521L65.006 91.0686L47.2598 164H24.6466L0.460938 54.9773H22.8495L37.6005 132.401L55.5713 54.9773H74.5904L92.4863 132.551Z" fill="#B082AB" fill-opacity="0.85"/>
<path d="M176.991 81.9168C176.991 77.6737 175.493 74.429 172.498 72.1826C169.503 69.8864 164.111 67.4903 156.324 64.9943C148.537 62.4485 142.372 59.9525 137.829 57.5065C125.449 50.8174 119.259 41.807 119.259 30.4754C119.259 24.585 120.907 19.3435 124.201 14.751C127.546 10.1086 132.313 6.48945 138.503 3.89367C144.743 1.29789 151.732 0 159.469 0C167.256 0 174.195 1.42269 180.285 4.26806C186.375 7.06351 191.093 11.0321 194.437 16.1737C197.832 21.3153 208.165 58.455 208.165 64.9943L177.065 33.6952C177.065 28.7033 175.493 24.8346 172.348 22.0891C169.203 19.2936 164.785 17.8959 159.095 17.8959C153.604 17.8959 149.335 19.069 146.29 21.4152C143.245 23.7114 141.723 26.7565 141.723 30.5503C141.723 34.0946 143.495 37.0647 147.039 39.4608C150.633 41.8569 155.9 44.1033 162.839 46.1999C175.618 50.0436 184.928 54.8109 190.768 60.5016C196.609 66.1924 199.529 73.2808 199.529 81.767C199.529 91.2017 195.96 98.6147 188.821 104.006C181.683 109.347 172.074 112.018 159.993 112.018C151.607 112.018 143.969 110.495 137.08 107.45C130.192 104.355 124.925 100.137 121.281 94.7959C117.687 89.4545 109.658 64.5451 109.658 57.5065L138.428 76.2261C138.428 88.2565 145.617 94.2717 159.993 94.2717C165.334 94.2717 169.503 93.1985 172.498 91.052C175.493 88.8555 176.991 85.8105 176.991 81.9168Z" fill="#B44002" fill-opacity="0.8"/>
</svg>
