<svg className="image-smartphone" style={{display:"block",transform:"rotate3d(2,2,2,-40deg)",position:"relative",zIndex:"3",marginLeft:"250px",marginTop:"65px"}} width="194" height="379" viewBox="0 0 194 379" fill="none" xmlns="http://www.w3.org/2000/svg">
<path d="M188.386 94.5484L188.371 95.0482L188.871 95.0626L190.381 95.1063L189.254 134.027L187.744 133.984L187.245 133.969L187.23 134.469L181.103 346.14C180.857 354.619 177.316 362.653 171.26 368.476C165.204 374.298 157.131 377.432 148.816 377.191L32.1859 373.815C28.0687 373.696 24.0156 372.752 20.2578 371.036C16.5 369.321 13.1108 366.868 10.2841 363.816C7.45739 360.764 5.24846 357.174 3.78393 353.25C2.3194 349.327 1.62807 345.146 1.7496 340.948L10.6561 33.2737C10.9015 24.7946 14.4432 16.7603 20.4992 10.9377C26.5548 5.11545 34.6282 1.98151 42.9427 2.22221L159.573 5.59839C163.69 5.71757 167.743 6.66174 171.501 8.37721C175.259 10.0927 178.648 12.546 181.475 15.5976C184.301 18.6492 186.51 22.2393 187.975 26.1631C189.439 30.087 190.131 34.2674 190.009 38.4656L188.386 94.5484Z" fill="#DAE0DE" stroke="black"/>
<path d="M145.265 16.5586C145.487 14.8347 145.345 13.085 144.85 11.4281L159.361 11.8482C162.418 11.9367 165.428 12.6421 168.218 13.9247C171.009 15.2073 173.526 17.042 175.625 19.3247C177.725 21.6075 179.365 24.2935 180.453 27.2299C181.541 30.1662 182.054 33.2949 181.963 36.4372L173.005 345.87C172.914 349.013 172.221 352.106 170.965 354.975C169.71 357.843 167.917 360.43 165.689 362.588C163.461 364.745 160.842 366.431 157.982 367.55C155.122 368.669 152.076 369.199 149.019 369.111L31.8274 365.718C28.7702 365.63 25.7605 364.924 22.9701 363.642C20.1796 362.359 17.6627 360.524 15.5633 358.242C13.4639 355.959 11.8232 353.273 10.7356 350.337C9.64799 347.4 9.13485 344.272 9.22581 341.129L18.1832 31.6962C18.2741 28.5539 18.9674 25.4601 20.2231 22.5916C21.4787 19.7231 23.272 17.1364 25.5 14.9789C27.7279 12.8214 30.3467 11.1354 33.2067 10.0164C36.0667 8.89742 39.1121 8.36721 42.1693 8.45571L55.6754 8.84668C55.0857 10.4722 54.8423 12.2107 54.9651 13.9447C55.1051 15.9219 55.717 17.8336 56.7477 19.5114C57.7785 21.1892 59.1968 22.5819 60.8788 23.5657C62.5608 24.5496 64.4543 25.0941 66.3923 25.1503L133.208 27.0845C135.146 27.1405 137.068 26.7065 138.804 25.8215C140.54 24.9366 142.037 23.6283 143.163 22.0129C144.289 20.3976 145.01 18.5245 145.265 16.5586Z" fill="#1A202C" stroke="black"/>
<path d="M103.125 266.813C103.061 269.019 102.269 271.131 100.891 272.769C99.5133 274.408 97.6398 275.466 95.6076 275.753L95.7949 269.282L97.7973 269.34L98.2564 266.673L95.8725 266.604C95.8568 264.37 95.8126 263.117 98.449 263.493L98.5149 261.216C94.5804 260.162 92.8653 262.277 93.1874 266.526L91.0043 266.463L90.9268 269.142L93.1099 269.205L92.9226 275.672C82.6962 273.672 84.3886 256.963 94.795 257.307C97.0748 257.373 99.2332 258.411 100.795 260.194C102.357 261.976 103.195 264.357 103.125 266.813L103.125 266.813Z" fill="#CACACA"/>
<path d="M156.257 187.337L37.7497 183.906C37.0191 183.884 36.3276 183.551 35.8271 182.979C35.3265 182.408 35.0577 181.645 35.0797 180.858L37.3654 101.896C37.389 101.109 37.7015 100.363 38.2343 99.8215C38.7671 99.28 39.4766 98.9872 40.2073 99.0075L158.715 102.438C159.446 102.46 160.137 102.793 160.638 103.365C161.138 103.936 161.407 104.699 161.385 105.486L159.099 184.448C159.076 185.235 158.763 185.981 158.23 186.523C157.698 187.064 156.988 187.357 156.257 187.337V187.337ZM40.173 100.195C39.7345 100.183 39.3088 100.358 38.9891 100.683C38.6695 101.008 38.482 101.456 38.4678 101.928L36.1821 180.89C36.1689 181.362 36.3301 181.82 36.6305 182.163C36.9308 182.505 37.3457 182.705 37.7841 182.719L156.292 186.149C156.73 186.161 157.156 185.986 157.476 185.661C157.795 185.336 157.983 184.888 157.997 184.416L160.283 105.454C160.296 104.982 160.135 104.524 159.834 104.181C159.534 103.839 159.119 103.639 158.681 103.625L40.173 100.195Z" fill="#CACACA"/>
<path d="M134.249 137.678L62.5934 135.604C61.9371 135.583 61.3165 135.282 60.8676 134.768C60.4187 134.254 60.1781 133.568 60.1985 132.861C60.219 132.154 60.4989 131.483 60.9768 130.996C61.4546 130.509 62.0916 130.244 62.7481 130.261L134.404 132.335C134.73 132.344 135.052 132.421 135.35 132.564C135.648 132.706 135.917 132.911 136.141 133.166C136.365 133.42 136.539 133.721 136.655 134.049C136.771 134.377 136.825 134.727 136.815 135.079C136.805 135.43 136.73 135.777 136.596 136.098C136.461 136.419 136.269 136.708 136.031 136.95C135.793 137.191 135.512 137.38 135.207 137.505C134.901 137.63 134.576 137.689 134.249 137.678Z" fill="#6C63FF"/>
<path d="M133.717 156.083L62.0608 154.009C61.4044 153.987 60.7838 153.687 60.3349 153.172C59.886 152.658 59.6454 151.973 59.6659 151.266C59.6864 150.559 59.9662 149.888 60.4441 149.401C60.922 148.913 61.559 148.649 62.2154 148.666L133.871 150.74C134.198 150.748 134.519 150.826 134.817 150.968C135.115 151.111 135.384 151.315 135.608 151.57C135.832 151.825 136.007 152.125 136.123 152.454C136.238 152.782 136.293 153.132 136.282 153.483C136.272 153.835 136.198 154.181 136.063 154.502C135.929 154.823 135.737 155.113 135.498 155.354C135.26 155.596 134.98 155.785 134.674 155.91C134.368 156.035 134.043 156.093 133.717 156.083Z" fill="#6C63FF"/>
<path d="M54.2628 264.675L47.6334 264.483L47.5756 266.478L52.282 266.614C51.9628 269.392 49.6366 270.517 47.4678 270.454C44.6989 270.374 42.3337 268.096 42.4236 264.99C42.5104 261.994 44.8908 259.745 47.7826 259.828C50.0165 259.893 51.2833 261.37 51.2833 261.37L52.6988 259.963C52.6988 259.963 50.9924 257.924 47.7681 257.831C43.6618 257.712 40.3865 261.128 40.2765 264.928C40.1697 268.619 43.0507 272.323 47.4534 272.45C51.3211 272.562 54.2182 269.962 54.3329 266.001C54.3572 265.16 54.2628 264.675 54.2628 264.675Z" fill="#CACACA"/>
<path d="M147.263 260.661C147.646 260.672 148.01 260.837 148.273 261.119C148.536 261.4 148.678 261.777 148.666 262.164L148.37 272.395C148.359 272.782 148.196 273.15 147.917 273.416C147.638 273.682 147.266 273.825 146.882 273.814L136.761 273.521C136.377 273.51 136.014 273.346 135.751 273.064C135.488 272.782 135.346 272.406 135.357 272.018L135.653 261.788C135.665 261.4 135.828 261.033 136.107 260.766C136.386 260.5 136.758 260.357 137.142 260.368L147.263 260.661ZM146.574 271.977L146.686 268.104C146.704 267.472 146.473 266.859 146.044 266.4C145.615 265.94 145.023 265.672 144.398 265.654C143.783 265.636 143.057 265.995 142.693 266.555L142.717 265.744L140.7 265.685L140.522 271.802L142.54 271.86L142.644 268.258C142.66 267.695 143.122 267.248 143.678 267.264C143.947 267.271 144.201 267.387 144.385 267.584C144.57 267.781 144.669 268.045 144.661 268.316L144.557 271.919L146.574 271.977ZM138.383 264.47C138.705 264.48 139.018 264.359 139.252 264.135C139.487 263.912 139.624 263.603 139.633 263.278C139.653 262.598 139.127 262.027 138.454 262.008C138.13 261.998 137.816 262.119 137.58 262.344C137.344 262.569 137.206 262.88 137.197 263.207C137.177 263.887 137.711 264.451 138.383 264.47V264.47ZM139.178 271.763L139.355 265.647L137.352 265.589L137.175 271.705L139.178 271.763V271.763Z" fill="#CACACA"/>
<rect x="31.5586" y="315.387" width="123.434" height="31.1939" rx="15.5969" transform="rotate(1.65812 31.5586 315.387)" fill="url(#paint0_linear)"/>
<path d="M65.9791 336.387C65.5122 336.766 64.9933 337.052 64.4224 337.245C63.8514 337.438 63.263 337.526 62.6572 337.508C62.1925 337.495 61.7456 337.42 61.3164 337.285C60.8916 337.154 60.4933 336.974 60.1216 336.744C59.7545 336.51 59.4206 336.234 59.1198 335.915C58.819 335.596 58.5624 335.247 58.35 334.867C58.1422 334.483 57.9831 334.074 57.8725 333.643C57.7666 333.207 57.7203 332.756 57.7338 332.291C57.7472 331.827 57.8195 331.38 57.9504 330.95C58.0859 330.521 58.2684 330.123 58.4979 329.756C58.7321 329.384 59.0085 329.048 59.3273 328.747C59.646 328.446 59.9953 328.192 60.3752 327.984C60.7597 327.772 61.1678 327.613 61.5994 327.507C62.0358 327.396 62.4863 327.348 62.9509 327.361C63.5568 327.379 64.1391 327.501 64.6979 327.726C65.2568 327.948 65.7583 328.263 66.2024 328.673L65.1143 330.351C64.8363 330.033 64.5038 329.786 64.1168 329.611C63.7299 329.431 63.3223 329.335 62.8941 329.322C62.4614 329.31 62.0536 329.38 61.6707 329.533C61.2879 329.686 60.9512 329.9 60.6605 330.174C60.3701 330.444 60.1373 330.768 59.9622 331.145C59.7873 331.519 59.6936 331.92 59.6812 332.348C59.6688 332.776 59.7392 333.182 59.8922 333.564C60.0454 333.943 60.2591 334.277 60.5334 334.568C60.8076 334.858 61.1314 335.091 61.5048 335.266C61.8781 335.441 62.2812 335.535 62.7139 335.547C63.1421 335.56 63.5545 335.49 63.951 335.337C64.3477 335.18 64.694 334.95 64.9899 334.649L65.9791 336.387ZM74.2332 333.904C74.2174 334.451 74.1046 334.958 73.895 335.426C73.6856 335.89 73.4073 336.29 73.0602 336.626C72.7132 336.958 72.309 337.218 71.8477 337.405C71.391 337.588 70.903 337.672 70.3837 337.657C69.869 337.642 69.3867 337.53 68.9368 337.321C68.4916 337.107 68.1031 336.825 67.7714 336.473C67.4443 336.117 67.1896 335.702 67.0073 335.227C66.8251 334.748 66.742 334.235 66.7578 333.688C66.7739 333.132 66.8867 332.62 67.0963 332.152C67.3059 331.684 67.5842 331.284 67.9312 330.952C68.2829 330.616 68.687 330.356 69.1437 330.173C69.6049 329.991 70.0929 329.907 70.6076 329.922C71.127 329.937 71.6094 330.044 72.055 330.244C72.5052 330.439 72.894 330.713 73.2212 331.064C73.5485 331.411 73.8032 331.827 73.9852 332.311C74.1674 332.79 74.2501 333.321 74.2332 333.904ZM72.3541 333.85C72.3628 333.549 72.3205 333.277 72.2273 333.032C72.1387 332.784 72.0127 332.57 71.8492 332.392C71.6858 332.21 71.4915 332.07 71.2664 331.972C71.0459 331.87 70.8081 331.815 70.553 331.808C70.2979 331.8 70.0551 331.841 69.8246 331.93C69.5987 332.015 69.399 332.144 69.2253 332.316C69.0563 332.485 68.9204 332.691 68.8176 332.934C68.7149 333.172 68.6593 333.442 68.6506 333.743C68.6424 334.025 68.6826 334.288 68.7713 334.533C68.86 334.777 68.9837 334.99 69.1426 335.173C69.306 335.355 69.4978 335.502 69.718 335.613C69.9428 335.72 70.1828 335.777 70.4379 335.785C70.693 335.792 70.9336 335.751 71.1596 335.662C71.3901 335.573 71.5921 335.444 71.7657 335.276C71.9393 335.108 72.0774 334.902 72.1802 334.659C72.2876 334.416 72.3455 334.146 72.3541 333.85ZM77.4424 337.724L75.577 337.67L75.7888 330.352L76.2398 330.365L76.8342 331.094C77.1428 330.829 77.4882 330.629 77.8706 330.494C78.2576 330.355 78.6583 330.292 79.0729 330.304C79.5193 330.317 79.9382 330.415 80.3295 330.6C80.7209 330.78 81.0603 331.024 81.3477 331.334C81.6353 331.638 81.8575 331.994 82.0144 332.399C82.1761 332.801 82.2504 333.227 82.2373 333.678L82.1162 337.86L80.2508 337.806L80.3719 333.624C80.3774 333.432 80.3462 333.252 80.2782 333.081C80.2103 332.906 80.1144 332.752 79.9906 332.621C79.8667 332.49 79.7216 332.385 79.5551 332.308C79.3887 332.23 79.2098 332.188 79.0185 332.183C78.8226 332.177 78.637 332.208 78.4618 332.276C78.2866 332.344 78.1334 332.44 78.0021 332.564C77.8709 332.687 77.7663 332.835 77.6884 333.006C77.6107 333.172 77.569 333.351 77.5635 333.543L77.4424 337.724ZM85.734 337.964L83.8685 337.91L84.0804 330.592L84.5314 330.605L85.1258 331.334C85.4343 331.069 85.7798 330.869 86.1621 330.734C86.5491 330.595 86.9499 330.532 87.3644 330.544C87.8108 330.557 88.2297 330.655 88.621 330.84C89.0124 331.02 89.3519 331.265 89.6393 331.574C89.9268 331.878 90.149 332.234 90.306 332.639C90.4676 333.041 90.5419 333.467 90.5288 333.918L90.4078 338.1L88.5423 338.046L88.6634 333.864C88.6689 333.673 88.6377 333.492 88.5697 333.321C88.5018 333.146 88.406 332.992 88.2821 332.861C88.1582 332.73 88.0131 332.625 87.8467 332.548C87.6802 332.47 87.5013 332.428 87.31 332.423C87.1141 332.417 86.9286 332.448 86.7534 332.516C86.5781 332.584 86.4249 332.68 86.2937 332.804C86.1624 332.927 86.0579 333.075 85.98 333.246C85.9022 333.412 85.8605 333.591 85.855 333.783L85.734 337.964ZM95.1228 336.444C95.195 336.469 95.2674 336.487 95.34 336.499C95.4128 336.505 95.4856 336.51 95.5585 336.512C95.7407 336.517 95.9168 336.497 96.0868 336.452C96.2568 336.407 96.416 336.341 96.5644 336.254C96.7175 336.162 96.8529 336.052 96.9706 335.923C97.093 335.79 97.1931 335.643 97.2707 335.481L98.5975 336.894C98.4173 337.135 98.2105 337.35 97.977 337.539C97.7482 337.729 97.4996 337.888 97.2315 338.017C96.9679 338.146 96.6893 338.24 96.3958 338.3C96.1067 338.365 95.8095 338.393 95.5043 338.384C94.9895 338.369 94.5072 338.259 94.0572 338.055C93.6117 337.85 93.2231 337.573 92.8913 337.221C92.5641 336.87 92.3094 336.456 92.1271 335.982C91.9449 335.502 91.862 334.98 91.8784 334.415C91.8951 333.837 92.0083 333.311 92.2181 332.838C92.4278 332.366 92.7061 331.966 93.053 331.638C93.4044 331.311 93.8083 331.061 94.2647 330.887C94.7256 330.713 95.2135 330.634 95.7282 330.649C96.0334 330.658 96.3307 330.703 96.6202 330.784C96.9096 330.866 97.1822 330.978 97.4379 331.122C97.6981 331.267 97.9392 331.442 98.1612 331.649C98.3833 331.852 98.5774 332.079 98.7433 332.33L95.1228 336.444ZM96.1908 332.625C96.1051 332.591 96.0192 332.568 95.9329 332.556C95.8511 332.545 95.7647 332.538 95.6736 332.535C95.4185 332.527 95.1757 332.568 94.9452 332.657C94.7193 332.742 94.5196 332.868 94.346 333.037C94.177 333.205 94.0411 333.411 93.9384 333.654C93.8357 333.893 93.78 334.165 93.7711 334.47C93.7691 334.538 93.7692 334.616 93.7712 334.702C93.7778 334.789 93.7867 334.878 93.7977 334.97C93.8134 335.057 93.8315 335.142 93.8519 335.225C93.8723 335.307 93.8998 335.381 93.9344 335.446L96.1908 332.625ZM106.601 338.568L104.319 338.502L102.929 336.219L101.395 338.418L99.1123 338.352L101.893 334.678L99.3253 330.992L101.608 331.059L103.016 333.199L104.532 331.143L106.814 331.209L104.031 334.74L106.601 338.568ZM110.16 329.357C110.155 329.53 110.117 329.691 110.044 329.839C109.976 329.988 109.883 330.117 109.766 330.228C109.649 330.334 109.512 330.419 109.355 330.483C109.203 330.542 109.04 330.569 108.867 330.564C108.694 330.559 108.531 330.523 108.378 330.454C108.23 330.382 108.1 330.289 107.989 330.176C107.883 330.059 107.798 329.925 107.734 329.772C107.675 329.62 107.648 329.458 107.653 329.284C107.658 329.116 107.694 328.957 107.762 328.809C107.835 328.656 107.928 328.526 108.04 328.42C108.157 328.31 108.292 328.225 108.444 328.165C108.601 328.101 108.766 328.072 108.939 328.077C109.112 328.082 109.273 328.121 109.421 328.194C109.574 328.262 109.706 328.355 109.817 328.472C109.928 328.584 110.013 328.719 110.072 328.876C110.136 329.028 110.165 329.188 110.16 329.357ZM109.57 338.654L107.691 338.6L107.903 331.282L109.782 331.336L109.57 338.654ZM118.598 335.189C118.582 335.735 118.469 336.243 118.26 336.711C118.05 337.174 117.772 337.574 117.425 337.911C117.078 338.243 116.674 338.502 116.212 338.689C115.756 338.872 115.268 338.956 114.748 338.941C114.234 338.926 113.751 338.814 113.301 338.605C112.856 338.392 112.468 338.109 112.136 337.758C111.809 337.402 111.554 336.986 111.372 336.511C111.19 336.032 111.107 335.519 111.122 334.972C111.139 334.416 111.251 333.904 111.461 333.436C111.671 332.968 111.949 332.568 112.296 332.236C112.648 331.9 113.052 331.641 113.508 331.458C113.97 331.275 114.458 331.191 114.972 331.206C115.492 331.221 115.974 331.328 116.42 331.528C116.87 331.724 117.259 331.997 117.586 332.349C117.913 332.695 118.168 333.111 118.35 333.595C118.532 334.074 118.615 334.605 118.598 335.189ZM116.719 335.134C116.727 334.834 116.685 334.561 116.592 334.317C116.503 334.068 116.377 333.855 116.214 333.677C116.05 333.494 115.856 333.354 115.631 333.256C115.411 333.154 115.173 333.099 114.918 333.092C114.663 333.085 114.42 333.125 114.189 333.214C113.963 333.299 113.764 333.428 113.59 333.601C113.421 333.769 113.285 333.975 113.182 334.218C113.08 334.457 113.024 334.726 113.015 335.027C113.007 335.309 113.047 335.573 113.136 335.817C113.225 336.061 113.348 336.274 113.507 336.457C113.671 336.639 113.862 336.786 114.083 336.898C114.308 337.004 114.548 337.061 114.803 337.069C115.058 337.076 115.298 337.035 115.524 336.946C115.755 336.857 115.957 336.728 116.13 336.56C116.304 336.392 116.442 336.186 116.545 335.943C116.652 335.7 116.71 335.43 116.719 335.134ZM121.807 339.009L119.942 338.955L120.154 331.636L120.605 331.649L121.199 332.378C121.507 332.113 121.853 331.914 122.235 331.779C122.622 331.639 123.023 331.576 123.438 331.588C123.884 331.601 124.303 331.7 124.694 331.884C125.086 332.064 125.425 332.309 125.712 332.618C126 332.923 126.222 333.278 126.379 333.684C126.541 334.085 126.615 334.511 126.602 334.962L126.481 339.144L124.616 339.09L124.737 334.908C124.742 334.717 124.711 334.536 124.643 334.365C124.575 334.19 124.479 334.037 124.355 333.905C124.231 333.774 124.086 333.67 123.92 333.592C123.753 333.514 123.574 333.472 123.383 333.467C123.187 333.461 123.002 333.492 122.827 333.56C122.651 333.628 122.498 333.724 122.367 333.848C122.236 333.972 122.131 334.119 122.053 334.29C121.975 334.457 121.934 334.635 121.928 334.827L121.807 339.009Z" fill="black"/>
<defs>
<linearGradient id="paint0_linear" x1="93.2754" y1="315.387" x2="93.2754" y2="377.775" gradientUnits="userSpaceOnUse">
<stop stopColor="#D17E30"/>
<stop offset="1" stopColor="#985E29" stopOpacity="0"/>
</linearGradient>
</defs>
</svg>
