<svg width="557" height="450" viewBox="0 0 557 450" fill="none" xmlns="http://www.w3.org/2000/svg">
<rect x="246.047" y="126.342" width="137.727" height="29.2519" rx="14.6259" transform="rotate(-39.3581 246.047 126.342)" fill="#BBB0BA" fill-opacity="0.2"/>
<rect width="137.727" height="29.2519" rx="14.6259" transform="matrix(0.773198 0.634165 0.634165 -0.773198 5.04688 301.716)" fill="#BBB0BA" fill-opacity="0.2"/>
<rect x="241" y="206.44" width="204.111" height="29.2519" rx="14.6259" transform="rotate(-39.3581 241 206.44)" fill="#BBB0BA" fill-opacity="0.2"/>
<rect width="204.111" height="29.2519" rx="14.6259" transform="matrix(0.773198 0.634165 0.634165 -0.773198 0 221.617)" fill="#BBB0BA" fill-opacity="0.2"/>
<rect x="190.181" y="422.262" width="258.323" height="36.3538" rx="18.1769" transform="rotate(-40.271 190.181 422.262)" fill="#BBB0BA" fill-opacity="0.2"/>
<rect x="336" y="378.98" width="258.323" height="36.3538" rx="18.1769" transform="rotate(-40.271 336 378.98)" fill="#BBB0BA" fill-opacity="0.2"/>
<rect x="39.9326" y="63.2842" width="137.727" height="29.2519" rx="14.6259" transform="rotate(-27.0298 39.9326 63.2842)" fill="#BBB0BA" fill-opacity="0.2"/>
<path d="M131.751 172.492L222.447 300.042L381.884 186.673L291.189 59.1227L131.751 172.492ZM259.321 196.607C262.139 196.667 264.902 195.818 267.2 194.184C269.498 192.55 271.207 190.219 272.076 187.537L275.714 176.148L359.918 178.287L363.697 183.602L225.518 281.855L221.739 276.541L247.369 196.303L259.321 196.607ZM259.652 183.568L153.717 180.878L149.938 175.563L288.117 77.3098L291.896 82.6244L259.652 183.568ZM163.165 194.164L233.788 195.958L212.291 263.254L163.165 194.164ZM350.471 165.001L279.847 163.207L301.344 95.9109L350.471 165.001Z" fill="#B082AB"/>
</svg>
