<svg width="60" height="60" viewBox="0 0 60 60" fill="none" xmlns="http://www.w3.org/2000/svg">
<g clipPath="url(#clip0)">
<path fill-rule="evenodd" clip-rule="evenodd" d="M60 30.6666C60 28.1999 59.7959 26.3999 59.3542 24.5333H30.6261V35.6665H47.4888C47.1489 38.4333 45.3131 42.5999 41.2332 45.3998L41.1761 45.7726L50.2593 52.6718L50.8886 52.7334C56.6681 47.5001 60 39.8 60 30.6666Z" fill="#4285F4"/>
<path fill-rule="evenodd" clip-rule="evenodd" d="M30.6123 60C38.8774 60 45.816 57.3333 50.8843 52.7334L41.2243 45.3998C38.6393 47.1665 35.1699 48.3999 30.6123 48.3999C22.517 48.3999 15.6464 43.1667 13.1971 35.9334L12.8382 35.9633L3.38875 43.13L3.26514 43.4666C8.29907 53.2666 18.6393 60 30.6123 60Z" fill="#34A853"/>
<path fill-rule="evenodd" clip-rule="evenodd" d="M13.1972 35.9252C12.551 34.0594 12.1769 32.06 12.1769 29.9943C12.1769 27.9284 12.5508 25.9293 13.1632 24.0635L13.1461 23.666L3.57838 16.3872L3.2654 16.5331C1.19063 20.5982 0.000244141 25.1628 0.000244141 29.9942C0.000244141 34.8255 1.19081 39.39 3.2654 43.455L13.1974 35.925L13.1972 35.9252Z" fill="#FBBC04"/>
<path fill-rule="evenodd" clip-rule="evenodd" d="M30.6123 11.6C36.3605 11.6 40.2378 14.0334 42.4489 16.0669L51.0883 7.80019C45.7824 2.96683 38.8774 0.000244141 30.6123 0.000244141C18.6393 0.000244141 8.29925 6.73351 3.26514 16.5334L13.1631 24.067C15.6464 16.8337 22.517 11.6002 30.6123 11.6002V11.6Z" fill="#EA4335"/>
</g>
<defs>
<clipPath id="clip0">
<rect width="60" height="60" fill="white"/>
</clipPath>
</defs>
</svg>
