<svg width="444" height="400" viewBox="0 0 444 400" fill="none" xmlns="http://www.w3.org/2000/svg">
<path d="M0.950409 400H254.687C254.863 400 255.033 399.925 255.158 399.791C255.283 399.657 255.353 399.475 255.353 399.285C255.353 399.096 255.283 398.914 255.158 398.78C255.033 398.646 254.863 398.571 254.687 398.571H0.950409C0.773773 398.571 0.604355 398.646 0.479462 398.78C0.354553 398.914 0.284424 399.096 0.284424 399.285C0.284424 399.475 0.354553 399.657 0.479462 399.791C0.604355 399.925 0.773773 400 0.950409 400Z" fill="#CCCCCC"/>
<path d="M95.8404 231.146C95.7833 229.853 95.463 228.591 94.9019 227.446C94.3409 226.301 93.5527 225.302 92.593 224.519C91.6333 223.737 90.5253 223.189 89.3472 222.916C88.169 222.643 86.9494 222.65 85.7741 222.937L74.8707 206.448L63.9169 211.114L79.6193 234.168C80.1998 236.255 81.4734 238.041 83.1988 239.187C84.9242 240.334 86.9816 240.761 88.981 240.389C90.9805 240.016 92.7831 238.869 94.0474 237.166C95.3116 235.462 95.9496 233.32 95.8404 231.145L95.8404 231.146Z" fill="#A0616A"/>
<path d="M83.8796 216.965L64.4938 181.976L72.3919 159.374L61.635 128.59L61.2382 128.773C60.9781 128.893 54.8659 131.82 53.9601 142.301L41.5983 183.993L74.5901 229.923L83.8796 216.965Z" fill="#65644D"/>
<path d="M189.165 88.3363C187.969 88.4973 186.821 88.9376 185.8 89.6264C184.78 90.3153 183.913 91.2357 183.26 92.3231C182.607 93.4104 182.185 94.6381 182.022 95.9198C181.859 97.2014 181.96 98.5058 182.317 99.7411L167.841 112.682L173.023 124.04L193.228 105.458C195.122 104.675 196.682 103.175 197.614 101.24C198.546 99.3053 198.784 97.0711 198.283 94.9606C197.782 92.8502 196.578 91.0102 194.897 89.7893C193.217 88.5684 191.177 88.0514 189.165 88.3363Z" fill="#A0616A"/>
<path d="M176.915 102.23L145.907 125.676L124.298 118.973L96.5293 132.862L96.7296 133.273C96.8608 133.542 100.053 139.855 109.861 140.014L149.552 150.016L189.673 111.167L176.915 102.23Z" fill="#65644D"/>
<path d="M120.177 387.348H130.956L136.085 342.728L120.175 342.729L120.177 387.348Z" fill="#A0616A"/>
<path d="M141.832 384.042H117.867V398.089H151.746V394.682C151.746 391.86 150.702 389.154 148.842 387.159C146.983 385.163 144.461 384.042 141.832 384.042Z" fill="#3E3D55"/>
<path d="M77.0914 387.348H87.8716L92.9996 342.728L77.0901 342.729L77.0914 387.348Z" fill="#A0616A"/>
<path d="M98.747 384.042H74.7819V398.089H108.661V394.682C108.661 391.86 107.617 389.154 105.757 387.159C103.898 385.163 101.376 384.042 98.747 384.042Z" fill="#3E3D55"/>
<path d="M73.2581 224.481L74.1372 290.532L75.0163 377.341L94.3609 375.454L104.033 255.619L116.343 375.454H136.313L138.325 254.676L131.29 228.255L73.2581 224.481Z" fill="#456171"/>
<path d="M133.219 228.658L136.166 228.522L122.477 147.601L128.082 123.142C128.373 121.87 128.219 120.527 127.65 119.368C127.08 118.209 126.134 117.315 124.99 116.854L114.906 112.797L111.344 102.283L83.2354 105.533L82.5442 113.75C79.4983 114.798 54.4155 123.762 56.1462 133.977C57.8543 144.058 67.94 175.777 68.4522 177.384L70.2185 222.873L70.4357 222.989C70.6973 223.13 90.0714 233.352 111.119 233.351C118.531 233.35 126.155 232.082 133.219 228.658Z" fill="#65644D"/>
<path d="M80.6331 85.7787C75.2718 75.254 78.8762 62.0581 88.6837 56.3048C98.4912 50.5515 110.788 54.4194 116.149 64.9441C121.511 75.4688 117.906 88.6647 108.099 94.4181C98.2911 100.171 85.9943 96.3034 80.6331 85.7787Z" fill="#A0616A"/>
<path d="M81.9983 96.3852C85.8552 100.794 93.0181 98.4273 93.5206 92.4041C93.56 91.9365 93.5572 91.4659 93.5121 90.9988C93.2526 88.3308 91.8163 85.9086 92.1603 83.0916C92.2382 82.3905 92.4816 81.7224 92.8675 81.1505C95.941 76.7339 103.156 83.1259 106.056 79.1277C107.835 76.6761 105.744 72.8161 107.109 70.076C108.91 66.4595 114.246 68.2436 117.592 66.263C121.315 64.0594 121.092 57.9297 118.642 54.2013C115.653 49.6544 110.413 47.2282 105.238 46.8785C100.063 46.5289 94.9242 48.03 90.093 50.0505C84.6038 52.3461 79.1606 55.5187 75.7826 60.6983C71.6746 66.9972 71.2792 75.4656 73.3337 82.831C74.5835 87.3115 78.8487 92.7849 81.9983 96.3852Z" fill="#3E3D55"/>
<rect x="197.143" width="245.503" height="262.235" rx="2" fill="#A77E60" fillOpacity="0.2"/>
<path d="M439.854 1.27608H201.211C200.302 1.27765 199.43 1.84036 198.787 2.84075C198.144 3.84113 197.782 5.19749 197.781 6.61225V258.175C197.782 259.589 198.144 260.946 198.787 261.946C199.43 262.946 200.302 263.509 201.211 263.511H439.854C440.764 263.509 441.636 262.946 442.279 261.946C442.922 260.946 443.283 259.589 443.284 258.175V6.61225C443.283 5.19749 442.922 3.84113 442.279 2.84075C441.636 1.84036 440.764 1.27765 439.854 1.27608V1.27608ZM442.304 258.175C442.304 259.185 442.046 260.155 441.586 260.869C441.127 261.584 440.504 261.986 439.854 261.986H201.211C200.562 261.986 199.938 261.584 199.479 260.869C199.02 260.155 198.761 259.185 198.761 258.175V6.61225C198.761 5.60149 199.02 4.63224 199.479 3.91753C199.938 3.20281 200.562 2.8011 201.211 2.8007H439.854C440.504 2.8011 441.127 3.20281 441.586 3.91753C442.046 4.63224 442.304 5.60149 442.304 6.61225V258.175Z" fill="#DAE0DE"/>
<path d="M442.794 22.6512H198.271V24.1761H442.794V22.6512Z" fill="#DAE0DE"/>
<path d="M206.602 17.2846C208.225 17.2846 209.542 15.2368 209.542 12.7107C209.542 10.1847 208.225 8.13687 206.602 8.13687C204.978 8.13687 203.661 10.1847 203.661 12.7107C203.661 15.2368 204.978 17.2846 206.602 17.2846Z" fill="#DAE0DE"/>
<path d="M215.054 17.2846C216.678 17.2846 217.995 15.2368 217.995 12.7107C217.995 10.1847 216.678 8.13687 215.054 8.13687C213.431 8.13687 212.114 10.1847 212.114 12.7107C212.114 15.2368 213.431 17.2846 215.054 17.2846Z" fill="#DAE0DE"/>
<path d="M223.507 17.2846C225.131 17.2846 226.448 15.2368 226.448 12.7107C226.448 10.1847 225.131 8.13687 223.507 8.13687C221.884 8.13687 220.567 10.1847 220.567 12.7107C220.567 15.2368 221.884 17.2846 223.507 17.2846Z" fill="#DAE0DE"/>
<path d="M395.667 74.812H243.759C241.744 74.812 239.812 73.5671 238.388 71.3512C236.963 69.1353 236.163 66.1299 236.163 62.9962C236.163 59.8624 236.963 56.857 238.388 54.6411C239.812 52.4253 241.744 51.1804 243.759 51.1804H395.667C397.681 51.1804 399.613 52.4253 401.038 54.6411C402.462 56.857 403.262 59.8624 403.262 62.9962C403.262 66.1299 402.462 69.1353 401.038 71.3512C399.613 73.5671 397.681 74.812 395.667 74.812ZM243.759 52.705C242.004 52.705 240.322 53.7892 239.081 55.7192C237.84 57.6492 237.143 60.2668 237.143 62.9962C237.143 65.7256 237.84 68.3432 239.081 70.2732C240.322 72.2031 242.004 73.2874 243.759 73.2874H395.667C397.421 73.2874 399.104 72.2031 400.345 70.2732C401.585 68.3432 402.282 65.7256 402.282 62.9962C402.282 60.2668 401.585 57.6492 400.345 55.7192C399.104 53.7892 397.421 52.705 395.667 52.705H243.759Z" fill="#DAE0DE"/>
<path d="M331.453 68.3324H249.6C247.791 68.3324 246.056 67.7702 244.776 66.7694C243.497 65.7687 242.779 64.4114 242.779 62.9962C242.779 61.5809 243.497 60.2237 244.776 59.2229C246.056 58.2222 247.791 57.66 249.6 57.66H331.453C333.262 57.66 334.997 58.2222 336.276 59.2229C337.555 60.2237 338.274 61.5809 338.274 62.9962C338.274 64.4114 337.555 65.7687 336.276 66.7694C334.997 67.7702 333.262 68.3324 331.453 68.3324Z" fill="#DAE0DE"/>
<rect x="234.706" y="100.796" width="167.435" height="62.5189" rx="15" fill="#C4C4C4"/>
<ellipse cx="257.307" cy="131.737" rx="14.3243" ry="14.3538" fill="#D67F7F"/>
<path d="M344.116 155.66H289.548C288.342 155.66 287.185 155.155 286.332 154.258C285.479 153.361 285 152.144 285 150.875C285 149.606 285.479 148.389 286.332 147.492C287.185 146.594 288.342 146.09 289.548 146.09H344.116C345.322 146.09 346.479 146.594 347.332 147.492C348.185 148.389 348.664 149.606 348.664 150.875C348.664 152.144 348.185 153.361 347.332 154.258C346.479 155.155 345.322 155.66 344.116 155.66Z" fill="#272274"/>
<path d="M373.675 116.745H291.821C290.012 116.745 288.277 116.241 286.998 115.343C285.719 114.446 285 113.229 285 111.96C285 110.691 285.719 109.474 286.998 108.577C288.277 107.68 290.012 107.176 291.821 107.176H373.675C375.484 107.176 377.219 107.68 378.498 108.577C379.777 109.474 380.496 110.691 380.496 111.96C380.496 113.229 379.777 114.446 378.498 115.343C377.219 116.241 375.484 116.745 373.675 116.745Z" fill="#272274"/>
<path d="M373.675 137.159H291.821C290.012 137.159 288.277 136.655 286.998 135.758C285.719 134.86 285 133.643 285 132.374C285 131.105 285.719 129.889 286.998 128.991C288.277 128.094 290.012 127.59 291.821 127.59H373.675C375.484 127.59 377.219 128.094 378.498 128.991C379.777 129.889 380.496 131.105 380.496 132.374C380.496 133.643 379.777 134.86 378.498 135.758C377.219 136.655 375.484 137.159 373.675 137.159Z" fill="#272274"/>
<rect x="234.706" y="185.005" width="167.435" height="62.5189" rx="15" fill="#C4C4C4"/>
<ellipse cx="257.307" cy="215.946" rx="14.3243" ry="14.3538" fill="#D67F7F"/>
<path d="M344.116 239.869H289.548C288.342 239.869 287.185 239.365 286.332 238.467C285.479 237.57 285 236.353 285 235.084C285 233.815 285.479 232.598 286.332 231.701C287.185 230.804 288.342 230.3 289.548 230.3H344.116C345.322 230.3 346.479 230.804 347.332 231.701C348.185 232.598 348.664 233.815 348.664 235.084C348.664 236.353 348.185 237.57 347.332 238.467C346.479 239.365 345.322 239.869 344.116 239.869Z" fill="#272274"/>
<path d="M373.675 200.954H291.821C290.012 200.954 288.277 200.45 286.998 199.553C285.719 198.655 285 197.438 285 196.169C285 194.9 285.719 193.683 286.998 192.786C288.277 191.889 290.012 191.385 291.821 191.385H373.675C375.484 191.385 377.219 191.889 378.498 192.786C379.777 193.683 380.496 194.9 380.496 196.169C380.496 197.438 379.777 198.655 378.498 199.553C377.219 200.45 375.484 200.954 373.675 200.954Z" fill="#272274"/>
<path d="M373.675 221.368H291.821C290.012 221.368 288.277 220.864 286.998 219.967C285.719 219.07 285 217.853 285 216.584C285 215.315 285.719 214.098 286.998 213.2C288.277 212.303 290.012 211.799 291.821 211.799H373.675C375.484 211.799 377.219 212.303 378.498 213.2C379.777 214.098 380.496 215.315 380.496 216.584C380.496 217.853 379.777 219.07 378.498 219.967C377.219 220.864 375.484 221.368 373.675 221.368Z" fill="#272274"/>
<path d="M388.365 55.9881C389.739 55.9881 391.057 56.5342 392.029 57.5064C393 58.4786 393.546 59.7972 393.546 61.1721C393.546 62.4562 393.076 63.6366 392.303 64.5458L392.518 64.7611H393.148L397.133 68.7489L395.937 69.9452L391.952 65.9574V65.3274L391.737 65.112C390.797 65.915 389.601 66.3561 388.365 66.3562C386.991 66.3562 385.673 65.81 384.701 64.8378C383.73 63.8656 383.184 62.547 383.184 61.1721C383.184 59.7972 383.73 58.4786 384.701 57.5064C385.673 56.5342 386.991 55.9881 388.365 55.9881ZM388.365 57.5832C386.372 57.5832 384.778 59.1783 384.778 61.1721C384.778 63.166 386.372 64.7611 388.365 64.7611C390.358 64.7611 391.952 63.166 391.952 61.1721C391.952 59.1783 390.358 57.5832 388.365 57.5832Z" fill="#DAE0DE"/>
</svg>
