<svg width="695" height="627" viewBox="0 0 695 627" fill="none" xmlns="http://www.w3.org/2000/svg">
<path d="M1.32881 626.919H399.24C399.517 626.919 399.783 626.801 399.979 626.591C400.174 626.381 400.284 626.096 400.284 625.799C400.284 625.502 400.174 625.217 399.979 625.007C399.783 624.797 399.517 624.679 399.24 624.679H1.32881C1.05182 624.679 0.786129 624.797 0.590269 625.007C0.394409 625.217 0.284424 625.502 0.284424 625.799C0.284424 626.096 0.394409 626.381 0.590269 626.591C0.786129 626.801 1.05182 626.919 1.32881 626.919Z" fill="#CCCCCC"/>
<path d="M150.136 362.274C150.046 360.249 149.544 358.27 148.664 356.475C147.784 354.681 146.548 353.115 145.043 351.889C143.538 350.662 141.801 349.805 139.953 349.376C138.106 348.948 136.193 348.959 134.35 349.409L117.251 323.565L100.073 330.879L124.698 367.012C125.608 370.282 127.605 373.081 130.311 374.878C133.017 376.675 136.243 377.345 139.379 376.761C142.515 376.177 145.342 374.379 147.324 371.709C149.307 369.039 150.307 365.682 150.136 362.274L150.136 362.274Z" fill="#A0616A"/>
<path d="M131.379 340.048L100.978 285.211L113.364 249.787L96.4948 201.539L95.8726 201.826C95.4647 202.013 85.8795 206.601 84.4589 223.029L65.0732 288.372L116.811 360.359L131.379 340.048Z" fill="#3F3D56"/>
<path d="M296.489 138.449C294.613 138.702 292.812 139.392 291.212 140.471C289.612 141.551 288.252 142.994 287.228 144.698C286.204 146.402 285.541 148.326 285.286 150.335C285.031 152.344 285.189 154.388 285.75 156.324L263.047 176.606L271.174 194.408L302.86 165.284C305.83 164.058 308.277 161.706 309.738 158.673C311.199 155.641 311.573 152.139 310.787 148.832C310.002 145.524 308.113 142.64 305.477 140.727C302.842 138.813 299.644 138.003 296.489 138.449V138.449Z" fill="#A0616A"/>
<path d="M277.278 160.225L228.651 196.972L194.763 186.467L151.216 208.235L151.53 208.878C151.736 209.3 156.742 219.195 172.123 219.443L234.366 235.12L297.285 174.231L277.278 160.225Z" fill="#3F3D56"/>
<path d="M188.3 607.09H205.205L213.248 537.157L188.297 537.158L188.3 607.09Z" fill="#A0616A"/>
<path d="M222.26 601.909H184.678V623.925H237.808V618.584C237.808 614.162 236.17 609.92 233.254 606.793C230.338 603.666 226.383 601.909 222.26 601.909V601.909Z" fill="#2F2E41"/>
<path d="M120.734 607.09H137.639L145.681 537.157L120.732 537.158L120.734 607.09Z" fill="#A0616A"/>
<path d="M154.694 601.909H117.112V623.925H170.242V618.584C170.242 614.162 168.604 609.92 165.688 606.793C162.772 603.666 158.818 601.909 154.694 601.909V601.909Z" fill="#2F2E41"/>
<path d="M114.722 351.829L116.101 455.35L117.479 591.406L147.816 588.448L162.983 400.632L182.288 588.448H213.606L216.76 399.153L205.729 357.744L114.722 351.829Z" fill="#2F2E41"/>
<path d="M208.753 358.376L213.374 358.161L191.908 231.335L200.697 193.001C201.154 191.006 200.913 188.902 200.019 187.085C199.126 185.269 197.642 183.867 195.849 183.145L180.035 176.786L174.449 160.307L130.369 165.402L129.285 178.28C124.508 179.923 85.1731 193.973 87.8872 209.981C90.5659 225.782 106.382 275.495 107.186 278.014L109.955 349.308L110.296 349.491C110.706 349.711 141.089 365.733 174.096 365.73C185.72 365.73 197.675 363.742 208.753 358.376Z" fill="#3F3D56"/>
<path d="M126.288 134.441C117.88 117.946 123.533 97.2635 138.913 88.2464C154.293 79.2292 173.577 85.2915 181.984 101.787C190.392 118.282 184.74 138.964 169.359 147.981C153.979 156.998 134.695 150.936 126.288 134.441Z" fill="#A0616A"/>
<path d="M128.429 151.064C134.477 157.974 145.71 154.265 146.498 144.825C146.56 144.092 146.555 143.354 146.485 142.622C146.078 138.441 143.825 134.644 144.365 130.229C144.487 129.131 144.869 128.083 145.474 127.187C150.294 120.265 161.608 130.283 166.157 124.017C168.946 120.174 165.667 114.125 167.808 109.83C170.633 104.162 179 106.958 184.247 103.854C190.086 100.4 189.736 90.7931 185.893 84.9497C181.206 77.8233 172.989 74.0207 164.874 73.4727C156.758 72.9246 148.699 75.2774 141.123 78.444C132.515 82.042 123.978 87.0143 118.681 95.1323C112.239 105.005 111.619 118.277 114.841 129.821C116.801 136.843 123.49 145.422 128.429 151.064Z" fill="#2F2E41"/>
<rect x="309" width="385" height="411" rx="2" fill="#A77E60" fillOpacity="0.85"/>
<path d="M689.621 2H315.379C313.953 2.00246 312.586 2.8844 311.577 4.4523C310.569 6.0202 310.002 8.14602 310 10.3634V404.637C310.002 406.854 310.569 408.98 311.577 410.548C312.586 412.116 313.953 412.998 315.379 413H689.621C691.047 412.998 692.414 412.116 693.423 410.548C694.431 408.98 694.998 406.854 695 404.637V10.3634C694.998 8.14602 694.431 6.0202 693.423 4.4523C692.414 2.8844 691.047 2.00246 689.621 2V2ZM693.463 404.637C693.463 406.221 693.058 407.74 692.337 408.86C691.617 409.98 690.64 410.61 689.621 410.61H315.379C314.36 410.61 313.383 409.98 312.663 408.86C311.942 407.74 311.537 406.221 311.537 404.637V10.3634C311.537 8.7792 311.942 7.26011 312.663 6.13993C313.383 5.01976 314.36 4.39016 315.379 4.38953H689.621C690.64 4.39016 691.617 5.01976 692.337 6.13993C693.058 7.26011 693.463 8.7792 693.463 10.3634V404.637Z" fill="#272274"/>
<path d="M694.231 35.5013H310.768V37.8911H694.231V35.5013Z" fill="#272274"/>
<path d="M323.832 27.0901C326.379 27.0901 328.443 23.8806 328.443 19.9215C328.443 15.9624 326.379 12.7529 323.832 12.7529C321.286 12.7529 319.222 15.9624 319.222 19.9215C319.222 23.8806 321.286 27.0901 323.832 27.0901Z" fill="#272274"/>
<path d="M337.088 27.0901C339.635 27.0901 341.699 23.8806 341.699 19.9215C341.699 15.9624 339.635 12.7529 337.088 12.7529C334.542 12.7529 332.477 15.9624 332.477 19.9215C332.477 23.8806 334.542 27.0901 337.088 27.0901Z" fill="#272274"/>
<path d="M350.344 27.0901C352.891 27.0901 354.955 23.8806 354.955 19.9215C354.955 15.9624 352.891 12.7529 350.344 12.7529C347.798 12.7529 345.734 15.9624 345.734 19.9215C345.734 23.8806 347.798 27.0901 350.344 27.0901Z" fill="#272274"/>
<path d="M620.326 117.253H382.102C378.943 117.253 375.914 115.302 373.68 111.829C371.446 108.356 370.191 103.645 370.191 98.7338C370.191 93.8223 371.446 89.112 373.68 85.639C375.914 82.166 378.943 80.2149 382.102 80.2149H620.326C623.485 80.2149 626.515 82.166 628.748 85.639C630.982 89.112 632.237 93.8223 632.237 98.7338C632.237 103.645 630.982 108.356 628.748 111.829C626.515 115.302 623.485 117.253 620.326 117.253V117.253ZM382.102 82.6044C379.351 82.6044 376.712 84.3038 374.767 87.3286C372.821 90.3535 371.728 94.456 371.728 98.7338C371.728 103.012 372.821 107.114 374.767 110.139C376.712 113.164 379.351 114.863 382.102 114.863H620.326C623.077 114.863 625.716 113.164 627.662 110.139C629.607 107.114 630.7 103.012 630.7 98.7338C630.7 94.456 629.607 90.3535 627.662 87.3286C625.716 84.3038 623.077 82.6044 620.326 82.6044H382.102Z" fill="#272274"/>
<path d="M519.625 107.097H391.262C388.425 107.097 385.705 106.216 383.699 104.648C381.692 103.079 380.565 100.952 380.565 98.7338C380.565 96.5157 381.692 94.3885 383.699 92.82C385.705 91.2516 388.425 90.3704 391.262 90.3704H519.625C522.462 90.3704 525.183 91.2516 527.189 92.82C529.195 94.3885 530.322 96.5157 530.322 98.7338C530.322 100.952 529.195 103.079 527.189 104.648C525.183 106.216 522.462 107.097 519.625 107.097Z" fill="#272274"/>
<rect x="367.906" y="157.977" width="262.573" height="97.9858" rx="15" fill="#C4C4C4"/>
<ellipse cx="403.348" cy="206.47" rx="22.4635" ry="22.4967" fill="#D67F7F"/>
<path d="M539.484 243.965H453.909C452.018 243.965 450.204 243.175 448.866 241.769C447.529 240.362 446.778 238.455 446.778 236.466C446.778 234.477 447.529 232.57 448.866 231.164C450.204 229.757 452.018 228.967 453.909 228.967H539.484C541.375 228.967 543.189 229.757 544.527 231.164C545.864 232.57 546.615 234.477 546.615 236.466C546.615 238.455 545.864 240.362 544.527 241.769C543.189 243.175 541.375 243.965 539.484 243.965Z" fill="#272274"/>
<path d="M585.837 182.974H457.475C454.638 182.974 451.917 182.184 449.911 180.777C447.905 179.371 446.778 177.464 446.778 175.475C446.778 173.486 447.905 171.579 449.911 170.172C451.917 168.766 454.638 167.976 457.475 167.976H585.837C588.674 167.976 591.395 168.766 593.401 170.172C595.407 171.579 596.534 173.486 596.534 175.475C596.534 177.464 595.407 179.371 593.401 180.777C591.395 182.184 588.674 182.974 585.837 182.974Z" fill="#272274"/>
<path d="M585.837 214.969H457.475C454.638 214.969 451.917 214.179 449.911 212.773C447.905 211.367 446.778 209.459 446.778 207.47C446.778 205.481 447.905 203.574 449.911 202.168C451.917 200.761 454.638 199.971 457.475 199.971H585.837C588.674 199.971 591.395 200.761 593.401 202.168C595.407 203.574 596.534 205.481 596.534 207.47C596.534 209.459 595.407 211.367 593.401 212.773C591.395 214.179 588.674 214.969 585.837 214.969Z" fill="#272274"/>
<rect x="367.906" y="289.958" width="262.573" height="97.9858" rx="15" fill="#C4C4C4"/>
<ellipse cx="403.348" cy="338.451" rx="22.4635" ry="22.4967" fill="#D67F7F"/>
<path d="M539.484 375.946H453.909C452.018 375.946 450.204 375.156 448.866 373.75C447.529 372.343 446.778 370.436 446.778 368.447C446.778 366.458 447.529 364.551 448.866 363.144C450.204 361.738 452.018 360.948 453.909 360.948H539.484C541.375 360.948 543.189 361.738 544.527 363.144C545.864 364.551 546.615 366.458 546.615 368.447C546.615 370.436 545.864 372.343 544.527 373.75C543.189 375.156 541.375 375.946 539.484 375.946Z" fill="#272274"/>
<path d="M585.837 314.955H457.475C454.638 314.955 451.917 314.165 449.911 312.758C447.905 311.352 446.778 309.445 446.778 307.456C446.778 305.467 447.905 303.56 449.911 302.153C451.917 300.747 454.638 299.957 457.475 299.957H585.837C588.674 299.957 591.395 300.747 593.401 302.153C595.407 303.56 596.534 305.467 596.534 307.456C596.534 309.445 595.407 311.352 593.401 312.758C591.395 314.165 588.674 314.955 585.837 314.955Z" fill="#272274"/>
<path d="M585.837 346.95H457.475C454.638 346.95 451.917 346.16 449.911 344.754C447.905 343.347 446.778 341.44 446.778 339.451C446.778 337.462 447.905 335.555 449.911 334.149C451.917 332.742 454.638 331.952 457.475 331.952H585.837C588.674 331.952 591.395 332.742 593.401 334.149C595.407 335.555 596.534 337.462 596.534 339.451C596.534 341.44 595.407 343.347 593.401 344.754C591.395 346.16 588.674 346.95 585.837 346.95Z" fill="#272274"/>
<path d="M608.875 87.75C611.03 87.75 613.097 88.606 614.62 90.1298C616.144 91.6535 617 93.7201 617 95.875C617 97.8875 616.262 99.7375 615.05 101.162L615.388 101.5H616.375L622.625 107.75L620.75 109.625L614.5 103.375V102.388L614.162 102.05C612.688 103.308 610.813 104 608.875 104C606.72 104 604.653 103.144 603.13 101.62C601.606 100.097 600.75 98.0299 600.75 95.875C600.75 93.7201 601.606 91.6535 603.13 90.1298C604.653 88.606 606.72 87.75 608.875 87.75V87.75ZM608.875 90.25C605.75 90.25 603.25 92.75 603.25 95.875C603.25 99 605.75 101.5 608.875 101.5C612 101.5 614.5 99 614.5 95.875C614.5 92.75 612 90.25 608.875 90.25Z" fill="black"/>
</svg>
